<?xml version="1.0" standalone="no"?>
<!DOCTYPE svg PUBLIC "-//W3C//DTD SVG 20010904//EN"
 "http://www.w3.org/TR/2001/REC-SVG-20010904/DTD/svg10.dtd">
<svg version="1.0" xmlns="http://www.w3.org/2000/svg"
 width="16.000000pt" height="16.000000pt" viewBox="0 0 16.000000 16.000000"
 preserveAspectRatio="xMidYMid meet">
<metadata>
Created by potrace 1.11, written by Peter Selinger 2001-2013
</metadata>
<g transform="translate(0.000000,16.000000) scale(0.005333,-0.005333)"
fill="#000000" stroke="none">
<path d="M224 1637 c-3 -8 -4 -47 -2 -88 2 -61 6 -74 21 -77 13 -3 17 3 17 27
0 27 3 31 28 31 44 0 72 26 72 65 0 24 -6 38 -19 45 -29 15 -111 13 -117 -3z
m85 -26 c21 -13 5 -41 -24 -41 -18 0 -25 5 -25 18 0 31 21 41 49 23z"/>
<path d="M415 1626 c-31 -31 -34 -92 -6 -127 16 -20 29 -24 69 -24 55 0 65 5
57 27 -4 9 -16 13 -40 10 -43 -5 -65 11 -65 49 0 41 26 62 67 54 30 -5 34 -4
31 12 -2 13 -14 19 -45 21 -35 3 -48 -2 -68 -22z"/>
<path d="M620 1630 c-12 -22 -60 -147 -60 -155 0 -15 40 -2 45 15 5 15 15 20
45 20 29 0 39 -4 43 -20 3 -12 14 -20 26 -20 27 0 27 0 -12 95 -25 62 -37 81
-54 83 -14 2 -26 -4 -33 -18z m40 -39 c0 -5 3 -16 6 -25 4 -12 0 -16 -15 -16
-22 0 -25 8 -15 34 7 17 24 22 24 7z"/>
<path d="M864 1639 c-50 -25 -57 -97 -15 -140 41 -40 121 -40 121 1 0 15 -6
17 -38 13 -65 -9 -95 44 -51 88 14 14 30 19 52 17 23 -2 32 1 32 12 0 18 -70
24 -101 9z"/>
<path d="M990 1636 c0 -9 12 -16 28 -18 26 -3 27 -5 30 -75 3 -65 5 -73 22
-73 18 0 20 7 20 75 0 73 1 75 25 75 16 0 25 6 25 15 0 12 -15 15 -75 15 -58
0 -75 -3 -75 -14z"/>
<path d="M1170 1561 c0 -84 1 -91 20 -91 16 0 20 7 20 30 0 26 4 30 28 30 40
0 72 26 72 58 0 45 -14 55 -79 60 l-61 4 0 -91z m89 50 c21 -13 5 -41 -24 -41
-18 0 -25 5 -25 18 0 31 21 41 49 23z"/>
<path d="M1370 1630 c-12 -22 -60 -147 -60 -155 0 -15 40 -2 45 15 5 15 15 20
45 20 29 0 39 -4 43 -20 3 -12 14 -20 26 -20 27 0 27 0 -12 95 -25 62 -37 81
-54 83 -14 2 -26 -4 -33 -18z m40 -39 c0 -5 3 -16 6 -25 4 -12 0 -16 -15 -16
-22 0 -25 8 -15 34 7 17 24 22 24 7z"/>
<path d="M1526 1638 c4 -7 16 -26 27 -41 l19 -28 -26 -39 c-31 -47 -32 -60 -8
-60 10 0 26 14 36 32 l19 31 26 -32 c14 -17 34 -31 44 -31 23 0 22 5 -14 55
l-31 43 26 35 c14 18 26 37 26 40 0 16 -40 5 -54 -15 l-16 -22 -23 22 c-25 24
-63 31 -51 10z"/>
<path d="M1715 1625 c-36 -36 -34 -88 5 -127 27 -26 36 -30 68 -25 114 19 107
177 -8 177 -30 0 -47 -6 -65 -25z m93 -21 c42 -29 19 -94 -33 -94 -42 0 -59
58 -28 92 20 22 32 23 61 2z"/>
<path d="M1910 1560 l0 -90 40 0 c78 0 124 47 86 89 -12 13 -14 21 -7 26 16 9
13 31 -5 49 -10 10 -33 16 -65 16 l-49 0 0 -90z m83 45 c-3 -13 -53 -20 -53
-7 0 15 13 23 35 20 11 -2 19 -7 18 -13z m12 -75 c0 -10 -12 -16 -32 -18 -32
-3 -45 13 -26 32 13 12 58 2 58 -14z"/>
<path d="M2101 1564 c-17 -47 -31 -87 -31 -90 0 -14 40 -1 45 16 5 15 15 20
45 20 29 0 39 -4 43 -20 3 -12 14 -20 27 -20 25 0 23 9 -23 113 -24 54 -34 67
-52 67 -20 0 -28 -12 -54 -86z m79 -6 c0 -4 -12 -8 -26 -8 -14 0 -23 3 -21 8
2 4 7 16 11 27 7 20 8 20 22 1 8 -11 14 -23 14 -28z"/>
<path d="M2272 1563 c3 -74 6 -88 21 -91 14 -3 17 4 17 37 0 40 1 41 34 41 33
0 35 -2 38 -37 2 -30 7 -38 23 -38 18 0 20 8 23 88 l3 87 -26 0 c-21 0 -25 -5
-25 -30 0 -28 -3 -30 -35 -30 -32 0 -35 2 -35 30 0 24 -4 30 -20 30 -20 0 -21
-5 -18 -87z"/>
<path d="M2470 1560 c0 -109 12 -116 65 -35 21 30 41 55 46 55 5 0 9 -25 9
-55 0 -48 2 -55 20 -55 19 0 20 7 20 90 0 82 -2 90 -19 90 -11 0 -38 -21 -60
-47 l-41 -48 0 48 c0 40 -3 47 -20 47 -19 0 -20 -7 -20 -90z"/>
<path d="M2670 1560 l0 -90 65 0 c58 0 65 2 65 20 0 17 -7 20 -45 20 -38 0
-45 3 -45 20 0 16 7 20 35 20 28 0 35 4 35 20 0 16 -7 20 -35 20 -24 0 -35 5
-35 15 0 11 11 15 40 15 29 0 40 4 40 15 0 12 -13 15 -60 15 l-60 0 0 -90z"/>
<path d="M1040 1230 c0 -7 163 -10 470 -10 307 0 470 3 470 10 0 7 -163 10
-470 10 -307 0 -470 -3 -470 -10z"/>
</g>
</svg>
