<svg width="61" height="70" viewBox="0 0 61 70" fill="none" xmlns="http://www.w3.org/2000/svg">
<path fill-rule="evenodd" clip-rule="evenodd" d="M32.8479 0.638383C31.395 -0.212794 29.605 -0.212795 28.1521 0.638382L2.34789 15.7559C0.895011 16.6071 0 18.1801 0 19.8825V50.1175C0 51.8199 0.89501 53.3929 2.34789 54.2441L28.1521 69.3616C29.605 70.2128 31.395 70.2128 32.8479 69.3616L58.6521 54.2441C60.105 53.3929 61 51.8199 61 50.1175V19.8825C61 18.1801 60.105 16.6071 58.6521 15.7559L32.8479 0.638383ZM32.8275 2.56837C31.3873 1.71783 29.6127 1.71783 28.1725 2.56837L4.20446 16.7224C2.76418 17.573 1.87692 19.1448 1.87692 20.8459V49.1541C1.87692 50.8551 2.76418 52.427 4.20446 53.2776L28.1725 67.4316C29.6127 68.2822 31.3873 68.2822 32.8275 67.4316L56.7955 53.2776C58.2358 52.427 59.1231 50.8551 59.1231 49.154V20.8459C59.1231 19.1449 58.2358 17.573 56.7955 16.7224L32.8275 2.56837Z" fill="#2F80ED"/>
<path d="M47.2124 37.6844H41.6993L45.2714 33.2462C45.284 33.2301 45.2963 33.2135 45.3072 33.1966C46.2169 31.7967 46.6979 30.1994 46.6979 28.578C46.6979 23.8328 42.8002 19.9723 38.0087 19.9723C34.3507 19.9723 31.2132 22.2267 29.9369 25.4074C28.6602 22.2267 25.5219 19.9723 21.8627 19.9723C17.0733 19.9723 13.1772 23.8328 13.1772 28.578C13.1772 30.406 13.7742 32.1715 14.9174 33.7017L29.4607 51.7056C29.5767 51.8488 29.7517 51.9323 29.9373 51.9323H29.9377C30.1233 51.9323 30.2987 51.8484 30.4143 51.7047L40.725 38.8944H47.2124C47.5493 38.8944 47.8228 38.6232 47.8228 38.2892C47.8228 37.9552 47.5493 37.6844 47.2124 37.6844ZM14.3981 28.578C14.3981 24.5005 17.7468 21.1826 21.8627 21.1826C25.9786 21.1826 29.3269 24.5001 29.3269 28.578C29.3269 28.9125 29.5999 29.1832 29.9373 29.1832C30.2747 29.1832 30.5478 28.9125 30.5478 28.578C30.5478 24.5005 33.8949 21.1826 38.0087 21.1826C42.1266 21.1826 45.477 24.5001 45.477 28.578C45.477 29.9566 45.0692 31.3178 44.2975 32.5156L40.1373 37.6844H35.8028L33.7646 30.5549C33.6881 30.2874 33.4525 30.1075 33.1562 30.1151C32.8758 30.1248 32.6377 30.3229 32.5799 30.5952L29.9854 42.8376L27.532 30.6017C27.4771 30.3269 27.239 30.1256 26.9566 30.1147C26.6696 30.1111 26.4214 30.287 26.3453 30.5569L24.5834 36.8154H19.142C19.096 36.8154 19.052 36.8215 19.0089 36.8308L15.8844 32.963C14.9121 31.6611 14.3981 30.1446 14.3981 28.578ZM29.9365 50.3585L19.9743 38.0258H25.047C25.3209 38.0258 25.5614 37.845 25.6351 37.5832L26.8332 33.3261L29.3696 45.9771C29.4262 46.2591 29.6748 46.4629 29.965 46.4645C29.9662 46.4645 29.967 46.4645 29.9683 46.4645C30.2568 46.4645 30.5063 46.264 30.5657 45.984L33.2653 33.2474L34.7536 38.4546C34.8285 38.7152 35.0678 38.8948 35.3409 38.8948H39.1625L29.9365 50.3585Z" fill="#2F80ED"/>
</svg>
