<svg width="61" height="70" viewBox="0 0 61 70" fill="none" xmlns="http://www.w3.org/2000/svg">
<path fill-rule="evenodd" clip-rule="evenodd" d="M32.8479 0.638383C31.395 -0.212794 29.605 -0.212795 28.1521 0.638382L2.34789 15.7559C0.895011 16.6071 0 18.1801 0 19.8825V50.1175C0 51.8199 0.89501 53.3929 2.34789 54.2441L28.1521 69.3616C29.605 70.2128 31.395 70.2128 32.8479 69.3616L58.6521 54.2441C60.105 53.3929 61 51.8199 61 50.1175V19.8825C61 18.1801 60.105 16.6071 58.6521 15.7559L32.8479 0.638383ZM32.8275 2.56837C31.3873 1.71783 29.6127 1.71783 28.1725 2.56837L4.20446 16.7224C2.76418 17.573 1.87692 19.1448 1.87692 20.8459V49.1541C1.87692 50.8551 2.76418 52.427 4.20446 53.2776L28.1725 67.4316C29.6127 68.2822 31.3873 68.2822 32.8275 67.4316L56.7955 53.2776C58.2358 52.427 59.1231 50.8551 59.1231 49.154V20.8459C59.1231 19.1449 58.2358 17.573 56.7955 16.7224L32.8275 2.56837Z" fill="#2F80ED"/>
<path d="M48.857 31.3751L30.7295 15.506C30.4846 15.2915 30.1226 15.2929 29.8803 15.5096L12.1386 31.3218C11.8676 31.5634 11.839 31.9839 12.0749 32.2615C12.3107 32.539 12.7217 32.5679 12.9922 32.3268L16.8149 28.9198V50.1786C16.8149 50.5463 17.1058 50.8448 17.4652 50.8448H42.8715C43.2304 50.8448 43.5217 50.5463 43.5217 50.1786V28.4571L48.0117 32.3876C48.1344 32.4951 48.2844 32.5475 48.4339 32.5475C48.6177 32.5475 48.8002 32.4684 48.929 32.3143C49.1622 32.0346 49.1301 31.614 48.857 31.3751ZM42.2212 49.513H18.1155V27.7608L30.3107 16.8916L42.2212 27.3185V49.513Z" fill="#2F80ED"/>
<path d="M23.3251 30.1321V42.9127C23.3251 43.2804 23.6159 43.5788 23.9753 43.5788H36.4511C36.81 43.5788 37.1014 43.2804 37.1014 42.9127V30.1321C37.1014 29.764 36.81 29.466 36.4511 29.466H23.9753C23.6164 29.466 23.3251 29.764 23.3251 30.1321ZM30.9112 42.2465V37.189H35.8008V42.2465H30.9112ZM35.8012 35.8567H30.9112V30.7983H35.8008L35.8012 35.8567ZM24.6256 30.7983H29.6106V36.2759C29.5807 36.3523 29.5634 36.4354 29.5634 36.5228C29.5634 36.6103 29.5807 36.6934 29.6106 36.7697V42.2461H24.6256V30.7983Z" fill="#2F80ED"/>
</svg>
