<svg width="61" height="70" viewBox="0 0 61 70" fill="none" xmlns="http://www.w3.org/2000/svg">
<path fill-rule="evenodd" clip-rule="evenodd" d="M32.8479 0.638383C31.395 -0.212794 29.605 -0.212795 28.1521 0.638382L2.34789 15.7559C0.895011 16.6071 0 18.1801 0 19.8825V50.1175C0 51.8199 0.89501 53.3929 2.34789 54.2441L28.1521 69.3616C29.605 70.2128 31.395 70.2128 32.8479 69.3616L58.6521 54.2441C60.105 53.3929 61 51.8199 61 50.1175V19.8825C61 18.1801 60.105 16.6071 58.6521 15.7559L32.8479 0.638383ZM32.8275 2.56837C31.3873 1.71783 29.6127 1.71783 28.1725 2.56837L4.20446 16.7224C2.76418 17.573 1.87692 19.1448 1.87692 20.8459V49.1541C1.87692 50.8551 2.76418 52.427 4.20446 53.2776L28.1725 67.4316C29.6127 68.2822 31.3873 68.2822 32.8275 67.4316L56.7955 53.2776C58.2358 52.427 59.1231 50.8551 59.1231 49.154V20.8459C59.1231 19.1449 58.2358 17.573 56.7955 16.7224L32.8275 2.56837Z" fill="#2F80ED"/>
<path d="M54.3303 37.1085C53.0389 31.9091 51.7915 31.411 47.658 30.4897L47.0074 30.3253C44.3121 29.7128 39.4644 26.0124 37.8697 24.7922C36.189 23.5281 34.1529 22.8487 32.0633 22.8549H23.8893C21.8005 22.8549 21.3211 23.1288 20.6607 23.8061L20.5825 23.8958L18.073 27.4368C17.7404 27.7804 17.4616 28.124 17.2121 28.4328C16.6006 29.1898 16.1946 29.6928 15.4462 29.8373L11.4888 30.3353C9.61039 30.6989 8.44617 31.8194 8.44617 33.3135V40.5349C8.44617 40.7331 8.52347 40.9231 8.66108 41.0632C8.79868 41.2033 8.98532 41.282 9.17992 41.282H12.8927C13.1164 42.2698 13.6624 43.1513 14.4415 43.7825C15.2207 44.4138 16.187 44.7574 17.1827 44.7574C18.1785 44.7574 19.1448 44.4138 19.9239 43.7825C20.7031 43.1513 21.2491 42.2698 21.4728 41.282H38.3296C38.5532 42.2698 39.0992 43.1513 39.8784 43.7825C40.6575 44.4138 41.6238 44.7574 42.6196 44.7574C43.6153 44.7574 44.5816 44.4138 45.3608 43.7825C46.1399 43.1513 46.6859 42.2698 46.9096 41.282H51.1458C51.6463 41.2809 52.1399 41.1636 52.5891 40.9391C53.0384 40.7147 53.4315 40.3889 53.7385 39.9865C54.0455 39.5841 54.2584 39.1158 54.3609 38.6171C54.4635 38.1184 54.453 37.6025 54.3303 37.1085ZM18.347 29.3791C18.5964 29.0703 18.8361 28.7516 19.1541 28.4478L19.2079 28.3332L21.7173 24.7922C22.0353 24.4685 22.2457 24.3241 23.8648 24.3241H32.0339C33.8084 24.323 35.5359 24.9046 36.9599 25.9825C39.0829 27.6061 40.8732 28.8661 42.4092 29.8024H17.9507L18.347 29.3791ZM17.1876 43.2741C16.6071 43.2741 16.0397 43.0988 15.557 42.7705C15.0744 42.4422 14.6982 41.9755 14.476 41.4295C14.2539 40.8834 14.1958 40.2826 14.309 39.703C14.4223 39.1233 14.7018 38.5909 15.1123 38.173C15.5227 37.7551 16.0457 37.4705 16.615 37.3552C17.1844 37.2399 17.7745 37.299 18.3108 37.5252C18.8471 37.7514 19.3055 38.1344 19.628 38.6258C19.9505 39.1172 20.1227 39.6949 20.1227 40.2859C20.1227 41.0784 19.8134 41.8385 19.263 42.3989C18.7126 42.9593 17.966 43.2741 17.1876 43.2741ZM42.6245 43.2741C42.044 43.2741 41.4765 43.0988 40.9939 42.7705C40.5112 42.4422 40.135 41.9755 39.9129 41.4295C39.6907 40.8834 39.6326 40.2826 39.7458 39.703C39.8591 39.1233 40.1386 38.5909 40.5491 38.173C40.9596 37.7551 41.4825 37.4705 42.0519 37.3552C42.6212 37.2399 43.2113 37.299 43.7477 37.5252C44.284 37.7514 44.7423 38.1344 45.0648 38.6258C45.3874 39.1172 45.5595 39.6949 45.5595 40.2859C45.5595 41.0784 45.2503 41.8385 44.6998 42.3989C44.1494 42.9593 43.4029 43.2741 42.6245 43.2741ZM52.5791 39.0757C52.4097 39.2983 52.1924 39.4782 51.9439 39.6017C51.6954 39.7252 51.4223 39.7889 51.1458 39.7879H46.9928C46.8683 38.6959 46.354 37.6886 45.5477 36.9575C44.7414 36.2263 43.6993 35.8223 42.6196 35.8223C41.5398 35.8223 40.4977 36.2263 39.6914 36.9575C38.8851 37.6886 38.3709 38.6959 38.2464 39.7879H21.5559C21.4314 38.6959 20.9172 37.6886 20.1109 36.9575C19.3046 36.2263 18.2625 35.8223 17.1827 35.8223C16.103 35.8223 15.0609 36.2263 14.2546 36.9575C13.4483 37.6886 12.934 38.6959 12.8096 39.7879H9.91368V33.3135C9.91368 32.2627 11.3274 31.9091 11.7187 31.8194L15.5734 31.3214H45.2513C45.7142 31.5289 46.1937 31.6955 46.6846 31.8194L47.345 31.9688C51.1018 32.8055 51.7817 32.9649 52.9068 37.492C52.9734 37.764 52.9786 38.0479 52.9218 38.3222C52.865 38.5965 52.7478 38.8542 52.5791 39.0757Z" fill="#2F80ED"/>
</svg>
