<svg width="61" height="70" viewBox="0 0 61 70" fill="none" xmlns="http://www.w3.org/2000/svg">
<path fill-rule="evenodd" clip-rule="evenodd" d="M32.8479 0.638383C31.395 -0.212794 29.605 -0.212795 28.1521 0.638382L2.34789 15.7559C0.895011 16.6071 0 18.1801 0 19.8825V50.1175C0 51.8199 0.89501 53.3929 2.34789 54.2441L28.1521 69.3616C29.605 70.2128 31.395 70.2128 32.8479 69.3616L58.6521 54.2441C60.105 53.3929 61 51.8199 61 50.1175V19.8825C61 18.1801 60.105 16.6071 58.6521 15.7559L32.8479 0.638383ZM32.8275 2.56837C31.3873 1.71783 29.6127 1.71783 28.1725 2.56837L4.20446 16.7224C2.76418 17.573 1.87692 19.1448 1.87692 20.8459V49.1541C1.87692 50.8551 2.76418 52.427 4.20446 53.2776L28.1725 67.4316C29.6127 68.2822 31.3873 68.2822 32.8275 67.4316L56.7955 53.2776C58.2358 52.427 59.1231 50.8551 59.1231 49.154V20.8459C59.1231 19.1448 58.2358 17.573 56.7955 16.7224L32.8275 2.56837Z" fill="#2F80ED"/>
<path d="M44.0446 30.1542C44.034 30.1156 44.0212 30.077 44.0034 30.0398L39.8566 21.3421C39.7421 21.1028 39.5017 20.9503 39.2366 20.9503H22.035C21.7694 20.9503 21.5281 21.1037 21.4145 21.3444L17.3071 30.0421C17.3057 30.0453 17.3053 30.0485 17.3034 30.0517C15.182 30.6006 13.6077 32.5308 13.6077 34.828V37.8891C13.6077 40.127 15.1009 42.0195 17.1395 42.6231V47.0539C17.1395 47.8876 17.9125 48.5665 18.8626 48.5665H21.012C21.9622 48.5665 22.7351 47.8876 22.7351 47.0539V42.827H38.5767V47.0539C38.5767 47.8876 39.3497 48.5665 40.3003 48.5665H42.4492C43.3994 48.5665 44.1728 47.8876 44.1728 47.0539V42.5165C44.8299 42.2721 45.4352 41.8904 45.9472 41.3764C46.8795 40.4417 47.3928 39.2028 47.3923 37.8886V34.8275C47.3923 32.6585 45.9879 30.8152 44.0446 30.1542ZM22.4695 22.3283H38.8039L42.4089 29.8905H18.8988L22.4695 22.3283ZM21.3623 47.0475C21.3486 47.0879 21.2236 47.189 21.012 47.189H18.8626C18.6511 47.189 18.5265 47.0875 18.5132 47.0544V42.8266C18.5192 42.8266 18.5247 42.8275 18.5302 42.8275H21.3614L21.3623 47.0475ZM42.7995 47.0475C42.7858 47.0875 42.6603 47.189 42.4488 47.189H40.2998C40.0883 47.189 39.9633 47.0875 39.95 47.0544V42.8275H42.4698C42.5802 42.8275 42.6892 42.8188 42.7986 42.8114L42.7995 47.0475ZM46.0186 37.8895C46.0186 38.8358 45.6482 39.7283 44.976 40.4031C44.3033 41.0783 43.4136 41.4495 42.4703 41.4495H18.5302C16.5735 41.4495 14.9814 39.8523 14.9814 37.8895V34.8285C14.9814 32.8657 16.5735 31.2685 18.5302 31.2685H42.4698C44.4265 31.2685 46.0186 32.8657 46.0186 34.8285V37.8895Z" fill="#2F80ED"/>
<path d="M19.9373 33.6539C18.4505 33.6539 17.2407 34.8675 17.2407 36.359C17.2407 37.8509 18.4505 39.0645 19.9373 39.0645C21.4241 39.0645 22.6339 37.8509 22.6339 36.359C22.6339 34.8675 21.4241 33.6539 19.9373 33.6539ZM19.9373 37.686C19.2079 37.686 18.6144 37.0907 18.6144 36.3585C18.6144 35.6268 19.2079 35.0315 19.9373 35.0315C20.6667 35.0315 21.2602 35.6268 21.2602 36.3585C21.2602 37.0912 20.6667 37.686 19.9373 37.686Z" fill="#2F80ED"/>
<path d="M41.3745 33.4826C39.8877 33.4826 38.6779 34.6962 38.6779 36.1877C38.6779 37.6796 39.8877 38.8932 41.3745 38.8932C42.8613 38.8932 44.0711 37.6796 44.0711 36.1877C44.0711 34.6962 42.8613 33.4826 41.3745 33.4826ZM41.3745 37.5147C40.6451 37.5147 40.0517 36.9194 40.0517 36.1872C40.0517 35.4555 40.6451 34.8602 41.3745 34.8602C42.104 34.8602 42.6974 35.4555 42.6974 36.1872C42.6974 36.9199 42.104 37.5147 41.3745 37.5147Z" fill="#2F80ED"/>
<path d="M33.6099 36.8363H27.3906C27.011 36.8363 26.7037 37.1449 26.7037 37.5253C26.7037 37.9056 27.011 38.2143 27.3906 38.2143H33.6099C33.989 38.2143 34.2967 37.9056 34.2967 37.5253C34.2967 37.1449 33.989 36.8363 33.6099 36.8363Z" fill="#2F80ED"/>
</svg>
