<svg width="61" height="70" viewBox="0 0 61 70" fill="none" xmlns="http://www.w3.org/2000/svg">
<path fill-rule="evenodd" clip-rule="evenodd" d="M32.8479 0.638383C31.395 -0.212794 29.605 -0.212795 28.1521 0.638382L2.34789 15.7559C0.895011 16.6071 0 18.1801 0 19.8825V50.1175C0 51.8199 0.89501 53.3929 2.34789 54.2441L28.1521 69.3616C29.605 70.2128 31.395 70.2128 32.8479 69.3616L58.6521 54.2441C60.105 53.3929 61 51.8199 61 50.1175V19.8825C61 18.1801 60.105 16.6071 58.6521 15.7559L32.8479 0.638383ZM32.8275 2.56837C31.3873 1.71783 29.6127 1.71783 28.1725 2.56837L4.20446 16.7224C2.76418 17.573 1.87692 19.1448 1.87692 20.8459V49.1541C1.87692 50.8551 2.76418 52.427 4.20446 53.2776L28.1725 67.4316C29.6127 68.2822 31.3873 68.2822 32.8275 67.4316L56.7955 53.2776C58.2358 52.427 59.1231 50.8551 59.1231 49.154V20.8459C59.1231 19.1449 58.2358 17.573 56.7955 16.7224L32.8275 2.56837Z" fill="#2F80ED"/>
<path d="M30.5 18.8111C21.7027 18.8111 14.5462 26.0735 14.5462 35C14.5462 43.9265 21.7031 51.1888 30.5 51.1888C39.2969 51.1888 46.4538 43.9265 46.4538 35C46.4538 26.0735 39.2973 18.8111 30.5 18.8111ZM42.9548 26.9996C35.9823 27.358 31.2234 32.988 30.1661 34.3585C29.208 34.2635 26.4709 33.8847 23.614 32.5325C24.4511 30.5041 28.1446 22.9682 37.1706 21.6587C39.5377 22.8829 41.537 24.7351 42.9548 26.9996ZM30.5 20.0345C32.1284 20.0345 33.6941 20.3077 35.1601 20.8044C26.984 22.8434 23.4645 29.7803 22.5382 31.9771C20.7563 30.9755 19.0129 29.5609 17.7081 27.566C20.2555 23.0705 25.0334 20.0345 30.5 20.0345ZM15.7518 35C15.7518 32.7873 16.2312 30.6872 17.0844 28.7955C21.2964 34.6138 28.7752 35.4808 30.2303 35.595C30.5928 36.4876 31.5071 39.0016 31.71 42.0743C29.2735 42.4063 21.3876 42.8451 15.7847 35.9534C15.7654 35.6374 15.7518 35.3201 15.7518 35ZM30.1781 49.9573C23.2354 49.8052 17.4597 44.7649 16.0713 38.0976C20.5123 42.5996 25.9086 43.4445 29.3314 43.4445C30.3304 43.4445 31.1603 43.3723 31.7502 43.2985C31.7478 45.439 31.3475 47.765 30.1781 49.9573ZM38.6101 47.4906C36.5558 48.8685 34.1438 49.7371 31.5481 49.9235C34.6377 43.3919 31.8414 36.2621 31.2644 34.9311C32.0022 34.0233 33.9227 31.8682 36.686 30.237C38.0612 32.2266 42.1482 39.2047 38.6101 47.4906ZM40.4178 46.067C42.8157 38.2595 39.2077 31.8184 37.753 29.6584C39.4681 28.8073 41.449 28.2058 43.6319 28.2009C44.6627 30.2427 45.2486 32.5524 45.2486 35C45.2486 39.3805 43.384 43.3275 40.4178 46.067Z" fill="#2F80ED"/>
</svg>
