<svg width="61" height="70" viewBox="0 0 61 70" fill="none" xmlns="http://www.w3.org/2000/svg">
<path fill-rule="evenodd" clip-rule="evenodd" d="M32.8479 0.638383C31.395 -0.212794 29.605 -0.212795 28.1521 0.638382L2.34789 15.7559C0.895011 16.6071 0 18.1801 0 19.8825V50.1175C0 51.8199 0.89501 53.3929 2.34789 54.2441L28.1521 69.3616C29.605 70.2128 31.395 70.2128 32.8479 69.3616L58.6521 54.2441C60.105 53.3929 61 51.8199 61 50.1175V19.8825C61 18.1801 60.105 16.6071 58.6521 15.7559L32.8479 0.638383ZM32.8275 2.56837C31.3873 1.71783 29.6127 1.71783 28.1725 2.56837L4.20446 16.7224C2.76418 17.573 1.87692 19.1448 1.87692 20.8459V49.1541C1.87692 50.8551 2.76418 52.427 4.20446 53.2776L28.1725 67.4316C29.6127 68.2822 31.3873 68.2822 32.8275 67.4316L56.7955 53.2776C58.2358 52.427 59.1231 50.8551 59.1231 49.154V20.8459C59.1231 19.1449 58.2358 17.573 56.7955 16.7224L32.8275 2.56837Z" fill="#2F80ED"/>
<path d="M53.368 23.8134C53.3014 23.7124 53.211 23.6296 53.1048 23.5723C52.9987 23.515 52.8802 23.485 52.7598 23.485H49.9473C49.8495 23.4845 49.7526 23.5037 49.6623 23.5416C49.5721 23.5795 49.4903 23.6353 49.4218 23.7056L44.4295 28.8767H33.2381L39.1355 19.2159C39.2041 19.1043 39.2418 18.9763 39.2447 18.8452C39.2477 18.714 39.2157 18.5844 39.1521 18.4699C39.0886 18.3554 38.9958 18.2601 38.8833 18.1939C38.7709 18.1277 38.6429 18.093 38.5127 18.0934H32.1871C31.9936 18.0936 31.8081 18.1712 31.6713 18.3091L21.1806 28.8767H17.5799C11.6485 28.8767 7.50769 32.2097 7.50769 36.9984C7.50769 37.4443 7.68353 37.8719 7.99652 38.1872C8.30952 38.5025 8.73403 38.6796 9.17666 38.6796H19.9642L32.4012 51.2077C32.5379 51.3457 32.7235 51.4232 32.917 51.4234H39.2425C39.3728 51.4238 39.5008 51.3891 39.6132 51.3229C39.7257 51.2567 39.8185 51.1614 39.882 51.0469C39.9456 50.9324 39.9775 50.8028 39.9746 50.6717C39.9717 50.5405 39.934 50.4125 39.8654 50.301L32.7613 38.6796H43.1838C44.4374 38.679 45.6631 38.3069 46.7083 37.6096C47.7535 36.9124 48.572 35.9208 49.0617 34.7584L53.441 24.4947C53.4846 24.3837 53.5008 24.2637 53.4881 24.145C53.4754 24.0263 53.4342 23.9125 53.368 23.8134ZM32.4888 19.5639H37.1892L31.5156 28.8767H23.2437L32.4888 19.5639ZM47.7188 34.1947C47.3393 35.0895 46.7071 35.8523 45.9009 36.3882C45.0946 36.9241 44.1498 37.2096 43.1838 37.2091H31.4572C31.327 37.2087 31.199 37.2434 31.0865 37.3096C30.9741 37.3758 30.8813 37.4711 30.8177 37.5856C30.7542 37.7002 30.7222 37.8297 30.7252 37.9609C30.7281 38.0921 30.7658 38.2201 30.8344 38.3316L37.9336 49.953H33.2187L20.7816 37.4248C20.6449 37.2869 20.4594 37.2093 20.2659 37.2091H9.17666C9.14812 37.2085 9.11999 37.2022 9.09393 37.1904C9.06787 37.1787 9.0444 37.1618 9.0249 37.1408C9.00541 37.1198 8.99028 37.0951 8.98041 37.0681C8.97054 37.0411 8.96613 37.0124 8.96743 36.9837C8.96743 33.0772 12.5097 30.3471 17.5799 30.3471H44.7409C44.8387 30.3477 44.9356 30.3284 45.0259 30.2906C45.1162 30.2527 45.198 30.1969 45.2664 30.1265L50.2539 24.9555H51.6552L47.7188 34.1947Z" fill="#2F80ED"/>
</svg>
