<svg width="80" height="80" viewBox="0 0 80 80" fill="none" xmlns="http://www.w3.org/2000/svg">
<path d="M63.6322 22.4486C63.6314 22.4438 63.6314 22.4383 63.6306 22.4335C63.6099 22.3308 63.5725 22.2345 63.5272 22.1429C63.516 22.1206 63.5041 22.0992 63.4913 22.0769C63.4396 21.9861 63.3799 21.9009 63.3067 21.8269C63.3059 21.8261 63.3051 21.8245 63.3043 21.8237L50.5966 9.11209C50.5958 9.11129 50.595 9.11129 50.5942 9.1105C50.5202 9.03726 50.4342 8.97756 50.3435 8.92502C50.322 8.91229 50.3005 8.90035 50.2782 8.8892C50.1867 8.84383 50.0911 8.80642 49.9884 8.78572C49.9821 8.78413 49.9765 8.78493 49.9701 8.78413C49.8993 8.77139 49.8269 8.76184 49.752 8.76184H17.1399C16.48 8.76184 15.9459 9.29677 15.9459 9.95587V69.6438C15.9459 70.303 16.48 70.8379 17.1399 70.8379H62.4597C63.1196 70.8379 63.6537 70.303 63.6537 69.6438V22.6667C63.6545 22.5935 63.6458 22.5203 63.6322 22.4486ZM50.9469 12.8406L59.5781 21.4751H50.9469V12.8406ZM18.3347 68.4514V11.1515H48.5588V22.6691C48.5588 23.3282 49.0929 23.8631 49.7528 23.8631H61.2665V68.4522L18.3347 68.4514Z" fill="white"/>
<path d="M38.4191 25.3906H23.4961C22.8362 25.3906 22.3021 25.9255 22.3021 26.5847C22.3021 27.2438 22.8362 27.7787 23.4961 27.7787H38.4191C39.079 27.7787 39.6131 27.2438 39.6131 26.5847C39.6131 25.9255 39.079 25.3906 38.4191 25.3906Z" fill="white"/>
<path d="M38.4191 31.0559H23.4961C22.8362 31.0559 22.3021 31.5908 22.3021 32.2499C22.3021 32.909 22.8362 33.444 23.4961 33.444H38.4191C39.079 33.444 39.6131 32.909 39.6131 32.2499C39.6131 31.5908 39.079 31.0559 38.4191 31.0559Z" fill="white"/>
<path d="M38.4191 36.7219H23.4961C22.8362 36.7219 22.3021 37.2568 22.3021 37.916C22.3021 38.5751 22.8362 39.11 23.4961 39.11H38.4191C39.079 39.11 39.6131 38.5751 39.6131 37.916C39.6131 37.2568 39.079 36.7219 38.4191 36.7219Z" fill="white"/>
<path d="M50.1095 49.686C46.2496 49.686 43.1101 52.8239 43.1101 56.6823C43.1101 60.5414 46.2504 63.6801 50.1095 63.6801C53.9686 63.6801 57.1081 60.5414 57.1081 56.6823C57.1081 52.8239 53.9686 49.686 50.1095 49.686ZM50.1095 61.292C47.567 61.292 45.4981 59.224 45.4981 56.6823C45.4981 54.1414 47.567 52.0741 50.1095 52.0741C52.6511 52.0741 54.72 54.1414 54.72 56.6823C54.72 59.2247 52.6519 61.292 50.1095 61.292Z" fill="white"/>
</svg>
