<svg width="80" height="80" viewBox="0 0 80 80" fill="none" xmlns="http://www.w3.org/2000/svg">
<path d="M63.632 12L63.488 11.856C63.3629 11.5893 63.1434 11.3785 62.872 11.264C51.928 0.800012 35.936 -0.975988 21.824 6.73601C21.6609 6.82497 21.5206 6.9506 21.4143 7.103C21.308 7.2554 21.2386 7.4304 21.2114 7.61422C21.1843 7.79804 21.2002 7.98565 21.2579 8.16227C21.3156 8.33889 21.4135 8.49969 21.544 8.63201L44.688 32L17.728 58.936C16.7896 59.8696 15.5197 60.3937 14.196 60.3937C12.8723 60.3937 11.6024 59.8696 10.664 58.936C10.2001 58.4731 9.83198 57.9232 9.58084 57.3178C9.3297 56.7124 9.20043 56.0634 9.20043 55.408C9.20043 54.7526 9.3297 54.1036 9.58084 53.4982C9.83198 52.8929 10.2001 52.343 10.664 51.88C10.7819 51.7702 10.8765 51.6377 10.942 51.4905C11.0076 51.3433 11.0429 51.1844 11.0457 51.0233C11.0486 50.8621 11.0189 50.7021 10.9586 50.5527C10.8982 50.4032 10.8084 50.2675 10.6945 50.1536C10.5805 50.0396 10.4448 49.9498 10.2954 49.8894C10.1459 49.8291 9.98588 49.7994 9.82476 49.8023C9.66364 49.8051 9.50473 49.8404 9.35754 49.906C9.21034 49.9715 9.07786 50.0661 8.968 50.184C7.62548 51.5793 6.88403 53.4457 6.90307 55.3819C6.9221 57.3181 7.70009 59.1695 9.06978 60.5382C10.4395 61.9068 12.2915 62.6834 14.2277 62.7009C16.1639 62.7185 18.0297 61.9756 19.424 60.632L46.4 33.72L67.68 55.248C67.7923 55.3604 67.9257 55.4494 68.0727 55.5099C68.2196 55.5703 68.3771 55.6009 68.536 55.6H68.712C68.8994 55.5722 69.0775 55.5005 69.2319 55.3907C69.3862 55.2808 69.5124 55.136 69.6 54.968C77.16 40.8 74.704 23.152 63.632 12ZM38.832 22.744C38.961 22.693 39.0801 22.6199 39.184 22.528C50.608 12.2 59.664 13.048 61.656 13.392L61.888 13.616C62.136 14.544 64.88 25.816 54.304 38.32L38.832 22.744ZM58.688 10.8C54.264 10.92 46.592 12.584 37.592 20.712C37.4621 20.8319 37.3609 20.9796 37.296 21.144L24.4 8.10401C36.144 2.30401 49.064 3.38401 58.688 10.8ZM68.208 52.4L56 40C64 30.64 65.04 21.896 64.8 16.968C68.5234 22.0054 70.808 27.9599 71.4097 34.195C72.0114 40.4302 70.9075 46.7116 68.216 52.368L68.208 52.4Z" fill="white"/>
<path d="M43.7754 66.2846H47.499V68.0457H43.7754V71.2H41.3964V68.0457H40V66.2846H41.3964V64.3394H40V62.368H41.3964V52.8H46.7232C48.723 52.8 50.2314 53.2731 51.2485 54.2194C52.2828 55.1657 52.8 56.5501 52.8 58.3726C52.8 60.3002 52.2656 61.7809 51.1968 62.8148C50.1279 63.8312 48.5937 64.3394 46.5939 64.3394H43.7754V66.2846ZM43.7754 62.3417H46.9042C48.0593 62.3417 48.9471 62.0087 49.5677 61.3428C50.2055 60.6769 50.5244 59.7307 50.5244 58.504C50.5244 57.2948 50.1969 56.3748 49.5418 55.744C48.8867 55.1131 47.9386 54.7977 46.6974 54.7977H43.7754V62.3417Z" fill="white"/>
</svg>
