<svg width="80" height="80" viewBox="0 0 80 80" fill="none" xmlns="http://www.w3.org/2000/svg">
<path d="M65.5023 17.677C65.5 17.6365 65.496 17.5968 65.4904 17.5571C65.4841 17.5182 65.4769 17.4801 65.4674 17.4428C65.4579 17.4055 65.4468 17.3681 65.4333 17.3324C65.4198 17.2959 65.4055 17.2602 65.388 17.2252C65.3713 17.1911 65.3539 17.1585 65.334 17.1268C65.3142 17.0934 65.2927 17.0616 65.2697 17.0307C65.2467 17.0005 65.2228 16.9711 65.1974 16.9433C65.172 16.9155 65.1458 16.8885 65.118 16.8631C65.0894 16.8369 65.0601 16.8123 65.0283 16.7893C64.9981 16.7671 64.968 16.7456 64.9354 16.7266C64.902 16.7059 64.8679 16.6877 64.833 16.671C64.798 16.6543 64.7631 16.6392 64.7266 16.6257C64.69 16.6122 64.6535 16.6011 64.6154 16.5916C64.5765 16.5812 64.5368 16.5733 64.4963 16.567C64.4756 16.5638 64.4566 16.5566 64.4359 16.555C54.9741 15.6085 47.5744 13.6846 39.9309 7.03048C39.4347 6.59852 38.6811 6.65093 38.2507 7.14641C38.2229 7.17817 38.2023 7.2139 38.1785 7.24805C30.4921 13.8799 24.0731 15.6451 14.9686 16.5543C14.3595 16.6154 13.8958 17.1276 13.8958 17.7398V45.6353C13.8958 45.741 13.9101 45.8458 13.9379 45.9474C18.7681 63.761 38.2484 72.2239 39.075 72.5757C39.2242 72.6392 39.383 72.671 39.5411 72.671C39.6975 72.671 39.8555 72.64 40.0024 72.5781C40.8393 72.2271 60.5427 63.765 65.3729 45.9482C65.3896 45.8855 65.4023 45.8219 65.4086 45.7568L65.5023 44.8349C65.5063 44.7952 65.5087 44.7547 65.5087 44.7143V17.7406C65.5087 17.7175 65.5039 17.6977 65.5023 17.677ZM63.0487 45.4154C58.88 60.5809 42.5211 68.7881 39.5434 70.1705C36.592 68.7841 20.4705 60.5951 16.2771 45.4734V18.8109C24.9076 17.8557 31.6014 15.8777 39.1877 9.50949C46.7057 15.7451 54.2682 17.8263 63.1258 18.807V44.6523L63.0487 45.4154Z" fill="white"/>
<path d="M50.8189 32.4288H49.6754C49.0466 27.154 44.5149 23.0472 39.0281 23.0472C33.5412 23.0472 29.0096 27.154 28.3815 32.4288H26.9983C26.3408 32.4288 25.8073 32.9616 25.8073 33.6199V51.0889C25.8073 51.7471 26.3408 52.2799 26.9983 52.2799H50.8197C51.4771 52.2799 52.0107 51.7471 52.0107 51.0889V33.6199C52.0099 32.9616 51.4763 32.4288 50.8189 32.4288ZM39.0273 25.4293C43.1976 25.4293 46.6533 28.4721 47.2671 32.4288H30.7875C31.4021 28.4721 34.857 25.4293 39.0273 25.4293ZM49.6278 34.811V49.8978H28.1886V34.811H49.6278Z" fill="white"/>
</svg>
