<svg width="80" height="80" viewBox="0 0 80 80" fill="none" xmlns="http://www.w3.org/2000/svg">
<path d="M65.9431 15.1276H59.4372V13.9725C59.4372 11.6728 57.569 9.80219 55.2732 9.80219C52.9704 9.80219 51.0973 11.6736 51.0973 13.9725V15.1276H43.9618V13.9725C43.9618 11.6728 42.0912 9.80219 39.7923 9.80219C37.4902 9.80219 35.6171 11.6736 35.6171 13.9725V15.1276H28.4816V13.9725C28.4816 11.6728 26.611 9.80219 24.3121 9.80219C22.0124 9.80219 20.1417 11.6736 20.1417 13.9725V15.1276H13.6589C12.999 15.1276 12.4649 15.6625 12.4649 16.3216V68.6074C12.4649 69.2665 12.999 69.8014 13.6589 69.8014H65.9439C66.6038 69.8014 67.1379 69.2665 67.1379 68.6074V16.3216C67.1371 15.6625 66.603 15.1276 65.9431 15.1276ZM53.4846 13.9725C53.4846 12.9902 54.287 12.1902 55.2724 12.1902C56.2515 12.1902 57.0484 12.9902 57.0484 13.9725V19.5367C57.0484 20.5198 56.2515 21.3198 55.2724 21.3198C54.287 21.3198 53.4846 20.5198 53.4846 19.5367V13.9725ZM38.0052 13.9725C38.0052 12.9902 38.8068 12.1902 39.7923 12.1902C40.7745 12.1902 41.5737 12.9902 41.5737 13.9725V19.5367C41.5737 20.5198 40.7745 21.3198 39.7923 21.3198C38.8068 21.3198 38.0052 20.5198 38.0052 19.5367V13.9725ZM22.5298 13.9725C22.5298 12.9902 23.329 12.1902 24.3121 12.1902C25.2944 12.1902 26.0936 12.9902 26.0936 13.9725V19.5367C26.0936 20.5198 25.2944 21.3198 24.3121 21.3198C23.3298 21.3198 22.5298 20.5198 22.5298 19.5367V13.9725ZM64.7491 67.4125H14.8522V17.5148H20.1409V19.5359C20.1409 21.8364 22.0116 23.7071 24.3113 23.7071C26.6102 23.7071 28.4808 21.8356 28.4808 19.5359V17.5148H35.6163V19.5359C35.6163 21.8364 37.4894 23.7071 39.7915 23.7071C42.0904 23.7071 43.961 21.8356 43.961 19.5359V17.5148H51.0965V19.5359C51.0965 21.8364 52.9704 23.7071 55.2724 23.7071C57.569 23.7071 59.4364 21.8356 59.4364 19.5359V17.5148H64.7483V67.4125H64.7491Z" fill="white"/>
<path d="M54.2782 34.7495C53.7552 34.3491 53.0054 34.447 52.6042 34.9723L37.6955 54.4541L27.8233 42.3148C27.4077 41.803 26.6547 41.7258 26.1437 42.1413C25.6318 42.5576 25.5546 43.3098 25.9709 43.8209L36.7976 57.1351C37.0245 57.4145 37.3644 57.5761 37.7242 57.5761C37.7297 57.5761 37.7361 57.5761 37.7417 57.5761C38.107 57.5705 38.4501 57.3978 38.6722 57.1073L54.5011 36.4235C54.9015 35.9005 54.802 35.1506 54.2782 34.7495Z" fill="white"/>
</svg>
