<svg width="80" height="80" viewBox="0 0 80 80" fill="none" xmlns="http://www.w3.org/2000/svg">
<path d="M66.4011 39.0111C67.9689 37.992 68.9993 36.3044 68.9993 34.3955C68.9993 31.2996 66.2807 28.7816 62.939 28.7816H46.7913C47.5547 27.3366 48.3276 24.9687 48.151 21.4427C47.8039 14.2144 43.4606 10.4644 40.9487 9.38796C39.4671 8.75328 37.8548 8.904 36.6369 9.79103C35.4141 10.6815 34.0339 12.7266 34.4029 17.4141C34.785 22.2855 28.6445 27.5696 25.6527 29.8401V27.9858C25.6527 27.4127 25.1933 26.9488 24.6257 26.9488H11.0269C10.4594 26.9488 10 27.4127 10 27.9858V65.4457C10 66.0181 10.4594 66.4827 11.0269 66.4827H24.6257C25.1933 66.4827 25.6527 66.0181 25.6527 65.4457V63.5534C29.5236 64.9589 40.4085 68.7463 45.7876 68.924L56.589 69C59.9266 69 62.6418 66.3693 62.6418 63.1365C62.6418 61.648 62.064 60.2915 61.1199 59.2551C64.0008 58.8023 66.2094 56.3873 66.2094 53.476C66.2094 51.9252 65.5789 50.5169 64.5588 49.4674C67.1159 48.7788 69 46.5097 69 43.8175C68.9993 41.8291 67.9696 40.0717 66.4011 39.0111ZM12.0539 64.4079V29.0222H23.5988V31.8015C23.5974 31.8292 23.5981 31.8568 23.5988 31.8845V62.0517C23.5981 62.0801 23.5967 62.1084 23.5988 62.1368V64.4086H12.0539V64.4079ZM62.939 47.6118H57.6749C57.6728 47.6118 57.6708 47.6125 57.668 47.6125H56.589C56.0222 47.6125 55.5621 48.0771 55.5621 48.6495C55.5621 49.222 56.0222 49.6866 56.589 49.6866H60.1457C62.3564 49.6866 64.1549 51.3866 64.1549 53.4753C64.1549 55.5639 62.3564 57.2633 60.1457 57.2633H56.6027C56.5979 57.2633 56.5938 57.2626 56.589 57.2626H52.814C52.2471 57.2626 51.787 57.7272 51.787 58.2997C51.787 58.8721 52.2471 59.3367 52.814 59.3367H56.5822C56.5842 59.3367 56.5863 59.3374 56.589 59.3374H56.6027C58.8011 59.345 60.5873 61.0451 60.5873 63.1358C60.5873 65.2251 58.7935 66.9252 56.5959 66.9252L45.828 66.8498C40.4729 66.6722 28.5966 62.4271 25.6527 61.3458V32.403C27.877 30.8578 36.9874 24.0893 36.45 17.2502C36.2213 14.343 36.7142 12.2917 37.8377 11.4738C38.7722 10.7942 39.8409 11.1682 40.147 11.2982C42.2173 12.1859 45.802 15.3427 46.0998 21.5464C46.3703 26.9377 44.2082 28.9544 44.1254 29.0291C43.7974 29.3112 43.6783 29.7689 43.8262 30.1775C43.9754 30.5854 44.3595 30.8564 44.7901 30.8564H62.9383C65.1476 30.8564 66.9447 32.4445 66.9447 34.3962C66.9447 36.3576 65.1476 37.954 62.9383 37.954H58.5478C57.9809 37.954 57.5208 38.4179 57.5208 38.9911C57.5208 39.5642 57.9809 40.0281 58.5478 40.0281H62.9383C65.1476 40.0281 66.9447 41.7275 66.9447 43.8175C66.9454 45.9089 65.1483 47.6118 62.939 47.6118Z" fill="white"/>
</svg>
