<svg width="80" height="80" viewBox="0 0 80 80" fill="none" xmlns="http://www.w3.org/2000/svg">
<path d="M44.5009 16.3095V13.2025H47.373C47.9335 13.2025 48.4238 12.7082 48.4238 12.1433V7.05919C48.4238 6.49429 47.9335 6 47.373 6H35.1138C34.5534 6 34.063 6.49429 34.063 7.05919V12.1433C34.063 12.7082 34.5534 13.2025 35.1138 13.2025H37.986V16.3095C31.1909 17.0862 25.1664 20.2638 20.613 24.9242L19.4221 23.7238L21.3835 21.7466C21.8039 21.323 21.8039 20.6874 21.3835 20.2638L17.3205 16.1682C16.9002 15.7445 16.2697 15.7445 15.8494 16.1682L10.3152 21.6054C9.89492 22.0291 9.89492 22.6646 10.3152 23.0883L14.3783 27.1838C14.5884 27.3956 14.8687 27.4663 15.1489 27.4663C15.4291 27.4663 15.7093 27.3956 15.9194 27.1838L17.951 25.136L19.282 26.4777C15.0788 31.4912 12.5569 37.9875 12.5569 45.0488C12.5569 61.0073 25.4466 74 41.2785 74C57.1103 74 70 61.0073 70 45.0488C69.93 30.2201 58.7916 17.9335 44.5009 16.3095ZM15.1489 24.9948L12.5569 22.3115L16.4799 18.3572L19.0718 20.9699L17.5306 22.5234C17.3205 22.7352 17.0403 23.0177 16.7601 23.3001L15.1489 24.9948ZM39.0368 11.0841H36.1646V8.11838H46.3222V11.0841H43.4501C42.8897 11.0841 42.3993 11.5784 42.3993 12.1433V16.1682C42.049 16.1682 41.6287 16.1682 41.2785 16.1682C40.9282 16.1682 40.5079 16.1682 40.1576 16.1682V12.1433C40.0876 11.5078 39.5972 11.0841 39.0368 11.0841ZM41.2084 71.8816C26.5674 71.8816 14.5884 59.8775 14.5884 45.0488C14.5884 30.2201 26.4974 18.216 41.2084 18.216C41.7688 18.216 42.3292 18.216 42.8897 18.2866C43.1699 18.2866 43.4501 18.3572 43.7303 18.3572C57.2504 19.6282 67.8284 31.1381 67.8284 45.0488C67.8284 59.8775 55.9194 71.8816 41.2084 71.8816Z" fill="white"/>
<path d="M56.1797 26.9359C56.1093 26.8626 56.0388 26.7893 55.9684 26.716C51.9532 23.1252 46.7405 21 41.0346 21C28.2846 21 18 31.7725 18 44.9634C18 58.1542 28.2846 69 40.9642 69C53.6438 69 63.9988 58.2275 63.9988 45.0366C64.0693 37.7817 60.9698 31.3328 56.1797 26.9359ZM40.9642 66.8015C29.4117 66.8015 20.0428 57.055 20.0428 45.0366C20.0428 33.0183 29.4117 23.2718 40.9642 23.2718C45.8247 23.2718 50.2626 25.0305 53.7847 27.8886L42.373 41.5191C41.9504 41.3725 41.4573 41.226 41.0346 41.226C39.0623 41.226 37.4421 42.9115 37.4421 44.9634C37.4421 47.0153 39.0623 48.7008 41.0346 48.7008C43.007 48.7008 44.5567 47.0153 44.5567 44.9634C44.5567 44.2305 44.3454 43.4977 43.9932 42.9115L55.4753 29.2076C59.4905 33.1649 61.956 38.7344 61.956 44.9634C61.956 56.9817 52.5167 66.8015 40.9642 66.8015ZM42.4435 44.9634C42.4435 45.8427 41.8095 46.5023 40.9642 46.5023C40.1189 46.5023 39.4849 45.8427 39.4849 44.9634C39.4849 44.1573 40.1189 43.4244 40.9642 43.4244C41.8095 43.4244 42.4435 44.1573 42.4435 44.9634Z" fill="white"/>
</svg>
