<svg width="80" height="80" viewBox="0 0 80 80" fill="none" xmlns="http://www.w3.org/2000/svg">
<path d="M67.2792 6.28271H12.7224C12.0615 6.28271 11.5266 6.81763 11.5266 7.47851V72.5224C11.5266 73.1824 12.0615 73.7181 12.7224 73.7181H67.28C67.94 73.7181 68.4758 73.1824 68.4758 72.5224V7.47851C68.475 6.81763 67.9392 6.28271 67.2792 6.28271ZM66.0834 71.3258H13.9182V8.6743H66.0842L66.0834 71.3258Z" fill="white"/>
<path d="M20.1323 32.0273H60.2312C60.892 32.0273 61.427 31.4916 61.427 30.8315V14.5217C61.427 13.8608 60.892 13.3259 60.2312 13.3259H20.1323C19.4714 13.3259 18.9365 13.8608 18.9365 14.5217V30.8307C18.9365 31.4916 19.4714 32.0273 20.1323 32.0273ZM21.3281 15.7183H59.0354V29.6357H21.3281V15.7183Z" fill="white"/>
<path d="M28.6735 37.8477H20.5532C19.8924 37.8477 19.3575 38.3834 19.3575 39.0434V47.1645C19.3575 47.8245 19.8924 48.3602 20.5532 48.3602H28.6735C29.3343 48.3602 29.8693 47.8245 29.8693 47.1645V39.0434C29.8693 38.3834 29.3335 37.8477 28.6735 37.8477ZM27.4777 45.9687H21.749V40.2392H27.4777V45.9687Z" fill="white"/>
<path d="M28.6735 53.5825H20.5532C19.8924 53.5825 19.3575 54.1182 19.3575 54.7783V62.8985C19.3575 63.5586 19.8924 64.0943 20.5532 64.0943H28.6735C29.3343 64.0943 29.8693 63.5586 29.8693 62.8985V54.7783C29.8693 54.1174 29.3335 53.5825 28.6735 53.5825ZM27.4777 61.7027H21.749V55.9733H27.4777V61.7027Z" fill="white"/>
<path d="M59.8095 37.8477H51.6901C51.0292 37.8477 50.4943 38.3834 50.4943 39.0434V47.1645C50.4943 47.8245 51.0292 48.3602 51.6901 48.3602H59.8103C60.4712 48.3602 61.0061 47.8245 61.0061 47.1645V39.0434C61.0053 38.3834 60.4704 37.8477 59.8095 37.8477ZM58.6137 45.9687H52.8858V40.2392H58.6145L58.6137 45.9687Z" fill="white"/>
<path d="M59.8095 53.5825H51.6901C51.0292 53.5825 50.4943 54.1182 50.4943 54.7783V62.8985C50.4943 63.5586 51.0292 64.0943 51.6901 64.0943H59.8103C60.4712 64.0943 61.0061 63.5586 61.0061 62.8985V54.7783C61.0053 54.1174 60.4704 53.5825 59.8095 53.5825ZM58.6137 61.7027H52.8858V55.9733H58.6145L58.6137 61.7027Z" fill="white"/>
<path d="M44.5081 37.5806H36.3903C35.7294 37.5806 35.1945 38.1163 35.1945 38.7764V46.8974C35.1945 47.5574 35.7294 48.0932 36.3903 48.0932H44.5081C45.169 48.0932 45.7039 47.5574 45.7039 46.8974V38.7764C45.7039 38.1163 45.1682 37.5806 44.5081 37.5806ZM43.3123 45.7016H37.5861V39.9721H43.3123V45.7016Z" fill="white"/>
<path d="M44.5081 53.3147H36.3903C35.7294 53.3147 35.1945 53.8504 35.1945 54.5105V62.6323C35.1945 63.2924 35.7294 63.8281 36.3903 63.8281H44.5081C45.169 63.8281 45.7039 63.2924 45.7039 62.6323V54.5105C45.7039 53.8504 45.1682 53.3147 44.5081 53.3147ZM43.3123 61.4357H37.5861V55.7055H43.3123V61.4357Z" fill="white"/>
</svg>
