<svg width="80" height="80" viewBox="0 0 80 80" fill="none" xmlns="http://www.w3.org/2000/svg">
<path d="M72.5404 33.9996C72.5396 33.9845 72.5373 33.9701 72.5357 33.9542C72.5253 33.8109 72.4935 33.674 72.4378 33.549C72.433 33.5387 72.4274 33.5307 72.4226 33.5204C72.3582 33.3874 72.2714 33.268 72.1647 33.1677C72.1607 33.1638 72.1591 33.159 72.1552 33.155L61.4965 23.4149V13.6939C61.4965 13.034 60.9615 12.4999 60.3024 12.4999H49.5387L40.4417 4.18705C39.9864 3.77073 39.2883 3.76993 38.8314 4.18705L29.7281 12.4999H19.6274C18.9675 12.4999 18.4334 13.034 18.4334 13.6939V22.8139L7.11637 33.155C7.11239 33.159 7.1108 33.1638 7.10682 33.1677C7.00015 33.268 6.91338 33.3874 6.84891 33.5204C6.84413 33.5307 6.83776 33.5395 6.83298 33.5498C6.77726 33.6748 6.74542 33.8109 6.73508 33.9542C6.73428 33.9701 6.73109 33.9853 6.7303 34.0012C6.7303 34.0139 6.72632 34.0251 6.72632 34.0378V74.5353C6.72632 74.6658 6.75259 74.79 6.79159 74.9078C6.79716 74.9238 6.80035 74.9389 6.80592 74.9548C6.85766 75.0917 6.93408 75.2151 7.02881 75.3226C7.03438 75.3289 7.03597 75.3369 7.04154 75.3433C7.04632 75.3488 7.05269 75.352 7.05826 75.3576C7.09726 75.3982 7.14025 75.434 7.18483 75.469C7.20473 75.4842 7.22224 75.5025 7.24294 75.5168C7.29547 75.5534 7.35199 75.5829 7.4101 75.6099C7.42443 75.6163 7.43716 75.6266 7.45149 75.6322C7.59557 75.6935 7.75398 75.7285 7.92035 75.7285H71.3488C72.0079 75.7285 72.5428 75.1936 72.5428 74.5345V34.037C72.5444 34.0243 72.5412 34.0123 72.5404 33.9996ZM9.11597 36.8581L18.7741 45.6796C18.7868 45.6923 18.8011 45.7043 18.8147 45.7162L28.1727 54.2647L9.11597 71.8113V36.8581ZM29.9422 55.8814L39.1594 64.3001C39.3878 64.5086 39.676 64.6129 39.9649 64.6129C40.2531 64.6129 40.542 64.5086 40.7697 64.3009L49.9574 55.9204L68.3486 73.3397H10.9818L29.9422 55.8814ZM51.7261 54.3076L70.1564 37.4973V71.7636L51.7261 54.3076ZM69.9924 34.4135L61.4957 42.1628V26.6499L69.9924 34.4135ZM39.6354 6.68576L45.9988 12.4999H33.2696L39.6354 6.68576ZM59.1084 14.8879V23.9562C59.1084 23.9745 59.1076 23.9912 59.1084 24.0087V44.3415L49.1247 53.4479C49.1176 53.4551 49.108 53.4575 49.1008 53.4647C49.0977 53.4678 49.0969 53.4726 49.0937 53.4766L39.9657 61.8022L20.8214 44.316V14.8879H59.1084ZM18.4334 42.1349L9.6302 34.0935L18.4334 26.0489V42.1349Z" fill="white"/>
<path d="M39.9649 48.6407C42.712 48.6407 45.3508 47.7977 47.5948 46.2033C48.1329 45.822 48.2594 45.0761 47.8766 44.5388C47.4953 43.9999 46.747 43.8741 46.2121 44.257C44.3733 45.5625 42.2137 46.2526 39.9641 46.2526C34.0354 46.2526 29.2123 41.4272 29.2123 35.4952C29.2123 29.5609 34.0354 24.733 39.9641 24.733C44.3064 24.733 47.8033 26.899 49.6023 30.6785V37.1549C49.6023 38.2288 48.7259 39.102 47.6497 39.102C46.626 39.102 45.6668 38.1444 45.5848 37.0944C45.7249 36.5842 45.8061 36.0492 45.8061 35.4944C45.8061 32.1511 43.0829 29.4303 39.7365 29.4303C36.3892 29.4303 33.6668 32.1503 33.6668 35.4944C33.6668 38.8385 36.3892 41.5585 39.7365 41.5585C41.4646 41.5585 43.0224 40.8293 44.1289 39.6672C44.9615 40.7577 46.2535 41.49 47.6489 41.49C50.0425 41.49 51.9896 39.5454 51.9896 37.1549V30.3999C51.9896 30.3943 51.988 30.3888 51.988 30.3832C51.9872 30.3482 51.9808 30.3131 51.9776 30.2781C51.9729 30.2335 51.9705 30.1882 51.9609 30.1452C51.957 30.1253 51.9482 30.1062 51.9426 30.0871C51.9267 30.029 51.91 29.9716 51.8861 29.9175C51.8845 29.9151 51.8845 29.9119 51.8829 29.9088C49.7432 25.1724 45.2879 22.345 39.9625 22.345C32.7172 22.345 26.8226 28.2443 26.8226 35.4952C26.825 42.7438 32.7195 48.6407 39.9649 48.6407ZM39.7381 39.1712C37.7082 39.1712 36.0565 37.5219 36.0565 35.4952C36.0565 33.4686 37.7082 31.8192 39.7381 31.8192C41.7679 31.8192 43.4196 33.4678 43.4196 35.4952C43.4196 37.5227 41.7679 39.1712 39.7381 39.1712Z" fill="white"/>
</svg>
