<svg width="80" height="80" viewBox="0 0 80 80" fill="none" xmlns="http://www.w3.org/2000/svg">
<path d="M50.4923 31.0614L37.0555 46.1126L30.2368 39.2947C29.7703 38.8282 29.0149 38.8282 28.5484 39.2947C28.0819 39.7611 28.0819 40.5166 28.5484 40.983L36.2603 48.6949C36.4839 48.9193 36.788 49.0443 37.1048 49.0443C37.116 49.0443 37.1271 49.0443 37.1383 49.0435C37.467 49.034 37.7767 48.8907 37.9956 48.6455L52.2746 32.6519C52.714 32.1599 52.671 31.4053 52.1791 30.9659C51.6855 30.5273 50.9325 30.5703 50.4923 31.0614Z" fill="white"/>
<path d="M73.2935 39.801C73.3158 39.7103 73.3309 39.6163 73.3309 39.5184C73.3309 36.3359 70.0298 34.6913 67.1164 33.2394C65.0483 32.2094 62.911 31.1435 62.3418 29.8006C61.7623 28.4299 62.5807 26.1962 63.3703 24.035C64.472 21.0237 65.6103 17.9105 63.5096 15.8113C61.4495 13.7512 58.4374 14.4486 55.5231 15.126C53.4837 15.5988 51.3735 16.0868 49.9685 15.4929C48.597 14.9126 47.4571 13.1136 46.3546 11.3719C44.7554 8.84936 42.9444 5.98926 39.8009 5.98926C36.6519 5.98926 34.8752 8.91145 33.3086 11.4906C32.2212 13.2808 31.0965 15.1308 29.7265 15.7103C28.3263 16.3033 26.1938 15.766 24.1321 15.2478C21.1948 14.5107 18.158 13.7449 16.0931 15.8121C14.0067 17.8977 15.0177 21.0269 15.9968 24.0541C16.6957 26.2137 17.4177 28.4474 16.8334 29.8301C16.2634 31.1785 14.2208 32.2348 12.2443 33.2569C9.44473 34.7041 6.271 36.3447 6.271 39.52C6.271 39.6187 6.28692 39.7134 6.30921 39.805C6.28692 39.8957 6.27179 39.9897 6.27179 40.0876C6.27179 43.2629 9.44552 44.9035 12.2459 46.3507C14.2208 47.3719 16.2642 48.4283 16.8342 49.7767C17.4185 51.1594 16.6965 53.393 15.9976 55.5534C15.0193 58.5799 14.0075 61.7083 16.0931 63.7946C18.1596 65.8619 21.1964 65.0985 24.1329 64.359C26.1954 63.8416 28.3287 63.3059 29.7281 63.8981C31.0973 64.4768 32.222 66.3268 33.3094 68.1162C34.8768 70.6945 36.6527 73.6167 39.8017 73.6167C42.9452 73.6167 44.757 70.7566 46.3554 68.234C47.4587 66.4923 48.5986 64.6933 49.9677 64.113C51.3783 63.5176 53.4845 64.0064 55.5231 64.48C58.4358 65.1558 61.4495 65.8563 63.508 63.7954C65.6111 61.6955 64.472 58.5815 63.3703 55.5709C62.5799 53.4098 61.7623 51.1761 62.341 49.807C62.911 48.4633 65.0483 47.3974 67.1164 46.3674C70.029 44.9162 73.3309 43.2708 73.3309 40.0884C73.3317 39.9873 73.3158 39.8925 73.2935 39.801ZM66.0521 44.2269C63.5964 45.4504 61.0571 46.716 60.1424 48.874C59.1976 51.1109 60.1791 53.7942 61.1279 56.3885C62.0099 58.8012 62.8441 61.0818 61.8197 62.1039C60.6981 63.2279 58.4453 62.7049 56.0628 62.1524C53.6525 61.5936 51.1602 61.0149 49.038 61.912C46.9803 62.7829 45.6374 64.9035 44.3383 66.954C42.946 69.151 41.631 71.2263 39.8017 71.2263C37.9956 71.2263 36.7108 69.112 35.3496 66.8736C34.0656 64.7602 32.7371 62.5743 30.6579 61.6963C28.5205 60.7904 25.9948 61.4257 23.5494 62.041C21.1534 62.642 18.8903 63.2135 17.7814 62.1039C16.7283 61.0515 17.4766 58.7367 18.2686 56.2858C19.102 53.7107 19.9625 51.0472 19.0328 48.8446C18.1269 46.7017 15.6943 45.444 13.342 44.2269C10.9341 42.9827 8.65906 41.807 8.65906 40.0852C8.65906 39.9865 8.64314 39.8917 8.62085 39.7994C8.64314 39.7087 8.65826 39.6147 8.65826 39.5168C8.65826 37.795 10.9325 36.6193 13.3404 35.3751C15.6935 34.1588 18.1269 32.9011 19.032 30.7566C19.9617 28.5548 19.1012 25.8921 18.2678 23.3162C17.4758 20.8653 16.7267 18.5505 17.7814 17.4973C18.8879 16.3885 21.151 16.9584 23.5486 17.561C25.9924 18.1747 28.5182 18.8123 30.6563 17.9065C32.7355 17.0277 34.064 14.8418 35.3496 12.7284C36.71 10.4892 37.9948 8.37493 39.8009 8.37493C41.6302 8.37493 42.9452 10.4502 44.3367 12.648C45.6366 14.6985 46.9795 16.8191 49.038 17.6908C51.1602 18.5879 53.6525 18.0092 56.0628 17.4496C58.4453 16.8971 60.6973 16.3741 61.8205 17.4989C62.8433 18.5202 62.0091 20.8 61.1271 23.2135C60.1783 25.8086 59.1968 28.4919 60.1424 30.7296C61.0555 32.8868 63.5956 34.1524 66.0513 35.3759C68.5667 36.6289 70.9428 37.8133 70.9428 39.5168C70.9428 39.6155 70.9588 39.7103 70.981 39.8018C70.9588 39.8925 70.9436 39.9865 70.9436 40.0844C70.9436 41.7903 68.5675 42.9739 66.0521 44.2269Z" fill="white"/>
</svg>
