<svg width="80" height="80" viewBox="0 0 80 80" fill="none" xmlns="http://www.w3.org/2000/svg">
<path d="M69.7839 9.21948H21.1518C18.248 9.21948 15.9212 11.2613 15.8543 13.8985V24.0987C15.8543 24.7586 16.3885 25.2927 17.0484 25.2927C17.7083 25.2927 18.2424 24.7586 18.2424 24.0987V13.9287C18.275 12.6487 19.5805 11.6075 21.1518 11.6075H69.7839C71.3903 11.6075 72.6965 12.6702 72.6965 13.9773V52.9393C72.6965 54.2471 71.3895 55.3106 69.7839 55.3106H21.1518C19.5479 55.3106 18.2424 54.2471 18.2424 52.9393V47.3616C18.2424 46.7025 17.7083 46.1675 17.0484 46.1675C16.3885 46.1675 15.8543 46.7025 15.8543 47.3616V52.9393C15.8543 55.5638 18.2304 57.6987 21.1518 57.6987H44.0915V67.9952H28.9345C28.2746 67.9952 27.7405 68.5301 27.7405 69.1892C27.7405 69.8483 28.2746 70.3833 28.9345 70.3833H61.5029C62.162 70.3833 62.6969 69.8483 62.6969 69.1892C62.6969 68.5301 62.162 67.9952 61.5029 67.9952H46.4796V57.6979H69.7839C72.7069 57.6979 75.0846 55.563 75.0846 52.9385V13.9773C75.0846 11.3536 72.7069 9.21948 69.7839 9.21948Z" fill="white"/>
<path d="M37.5156 28.702H63.1085C63.7676 28.702 64.3025 28.1679 64.3025 27.508C64.3025 26.8481 63.7676 26.314 63.1085 26.314H37.5156C36.8557 26.314 36.3216 26.8481 36.3216 27.508C36.3216 28.1679 36.8557 28.702 37.5156 28.702Z" fill="white"/>
<path d="M37.5156 36.2635H63.1085C63.7676 36.2635 64.3025 35.7294 64.3025 35.0695C64.3025 34.4096 63.7676 33.8755 63.1085 33.8755H37.5156C36.8557 33.8755 36.3216 34.4096 36.3216 35.0695C36.3216 35.7294 36.8557 36.2635 37.5156 36.2635Z" fill="white"/>
<path d="M37.5156 44.2428H63.1085C63.7676 44.2428 64.3025 43.7079 64.3025 43.0488C64.3025 42.3897 63.7676 41.8547 63.1085 41.8547H37.5156C36.8557 41.8547 36.3216 42.3897 36.3216 43.0488C36.3216 43.7079 36.8557 44.2428 37.5156 44.2428Z" fill="white"/>
<path d="M16.8048 38.786C17.1128 38.786 17.4185 38.6674 17.6494 38.4366L34.9007 21.1844C35.3672 20.718 35.3672 19.9618 34.9007 19.4961C34.4342 19.0296 33.6788 19.0296 33.2123 19.4961L16.675 36.0342L6.40398 28.722C5.86587 28.3399 5.12159 28.4656 4.73871 29.0022C4.35662 29.5395 4.48159 30.2853 5.0197 30.6674L16.1138 38.5647C16.3216 38.7136 16.5644 38.786 16.8048 38.786Z" fill="white"/>
</svg>
