<svg width="80" height="80" viewBox="0 0 80 80" fill="none" xmlns="http://www.w3.org/2000/svg">
<path d="M71.2532 15.561H8.46688C5.29169 15.561 2.70801 18.1447 2.70801 21.3199V25.1687V33.4626V58.3994C2.70801 61.5746 5.29169 64.1575 8.46688 64.1575H71.2532C74.4284 64.1575 77.0113 61.5746 77.0113 58.3994V33.4626V25.1687V21.3199C77.0113 18.1447 74.4284 15.561 71.2532 15.561ZM5.09877 21.3199C5.09957 19.4625 6.60944 17.9526 8.46608 17.9526H71.2524C73.1091 17.9526 74.619 19.4633 74.619 21.3199V23.9729H5.09877V21.3199ZM74.6198 58.3986C74.6198 60.2545 73.1091 61.7651 71.2532 61.7651H8.46688C6.61023 61.7651 5.09957 60.2545 5.09957 58.3986V34.6576H74.6198V58.3986ZM74.6198 32.2661H5.09957V26.3637H74.6198V32.2661Z" fill="white"/>
<path d="M14.2648 57.0513C16.5647 57.0513 18.4349 55.1819 18.4349 52.8844C18.4349 50.5853 16.5647 48.7144 14.2648 48.7144C11.9665 48.7144 10.0963 50.5853 10.0963 52.8844C10.0963 55.1819 11.9665 57.0513 14.2648 57.0513ZM14.2648 51.1059C15.2454 51.1059 16.0433 51.9039 16.0433 52.8844C16.0433 53.8634 15.2454 54.6598 14.2648 54.6598C13.2851 54.6598 12.4879 53.8634 12.4879 52.8844C12.4879 51.9039 13.2851 51.1059 14.2648 51.1059Z" fill="white"/>
<path d="M23.1821 54.2207H56.8744C57.5353 54.2207 58.0702 53.6857 58.0702 53.0249C58.0702 52.364 57.5353 51.8291 56.8744 51.8291H23.1821C22.5213 51.8291 21.9864 52.364 21.9864 53.0249C21.9864 53.6857 22.5213 54.2207 23.1821 54.2207Z" fill="white"/>
</svg>
