<svg width="358" height="480" viewBox="0 0 358 480" fill="none" xmlns="http://www.w3.org/2000/svg">
<g opacity="0.1">
<path d="M313.869 177.955L218.499 284.784L170.102 236.392C166.791 233.081 161.429 233.081 158.118 236.392C154.807 239.703 154.807 245.065 158.118 248.376L212.854 303.112C214.442 304.705 216.6 305.592 218.849 305.592C218.928 305.592 219.007 305.592 219.086 305.587C221.42 305.519 223.618 304.502 225.171 302.762L326.52 189.244C329.638 185.752 329.333 180.396 325.842 177.277C322.339 174.164 316.994 174.469 313.869 177.955Z" fill="white"/>
<path d="M475.706 239.986C475.864 239.342 475.972 238.675 475.972 237.98C475.972 215.392 452.541 203.719 431.863 193.414C417.184 186.103 402.014 178.537 397.975 169.006C393.861 159.277 399.67 143.423 405.274 128.084C413.094 106.71 421.173 84.6132 406.263 69.7143C391.641 55.0923 370.262 60.0417 349.577 64.8497C335.102 68.2058 320.124 71.6692 310.152 67.4544C300.417 63.3356 292.327 50.5668 284.502 38.2047C273.151 20.3002 260.297 0 237.986 0C215.635 0 203.024 20.7408 191.905 39.0466C184.187 51.7532 176.204 64.8836 166.48 68.9968C156.542 73.206 141.406 69.3923 126.773 65.7142C105.925 60.4824 84.3702 55.0471 69.7143 69.72C54.9059 84.5228 62.0813 106.733 69.0307 128.219C73.9913 143.547 79.1158 159.401 74.9687 169.215C70.9234 178.786 56.4257 186.283 42.397 193.538C22.5262 203.809 0 215.454 0 237.991C0 238.692 0.113 239.364 0.271198 240.014C0.113 240.658 0.0056522 241.325 0.0056522 242.02C0.0056522 264.557 22.5319 276.202 42.4083 286.473C56.4257 293.722 70.9291 301.22 74.9744 310.791C79.1214 320.605 73.997 336.458 69.0363 351.792C62.0926 373.273 54.9115 395.477 69.7143 410.286C84.3815 424.958 105.936 419.54 126.778 414.291C141.417 410.619 156.559 406.817 166.492 411.02C176.21 415.128 184.193 428.258 191.911 440.959C203.035 459.259 215.64 480 237.991 480C260.303 480 273.162 459.7 284.507 441.795C292.338 429.433 300.429 416.664 310.147 412.546C320.158 408.319 335.108 411.789 349.577 415.15C370.25 419.947 391.641 424.919 406.252 410.291C421.179 395.387 413.094 373.284 405.274 351.916C399.664 336.577 393.861 320.723 397.969 311.005C402.014 301.468 417.184 293.903 431.863 286.592C452.536 276.292 475.972 264.614 475.972 242.025C475.977 241.308 475.864 240.636 475.706 239.986ZM424.309 271.399C406.879 280.083 388.856 289.067 382.364 304.384C375.657 320.26 382.624 339.306 389.358 357.719C395.618 374.844 401.54 391.031 394.268 398.285C386.307 406.263 370.318 402.551 353.408 398.63C336.3 394.664 318.61 390.556 303.547 396.924C288.942 403.105 279.411 418.156 270.19 432.71C260.309 448.304 250.975 463.033 237.991 463.033C225.172 463.033 216.053 448.027 206.391 432.14C197.278 417.139 187.848 401.624 173.091 395.392C157.921 388.963 139.994 393.472 122.637 397.839C105.631 402.105 89.5681 406.161 81.6978 398.285C74.223 390.816 79.5339 374.386 85.1556 356.99C91.071 338.713 97.1786 319.808 90.5795 304.175C84.1499 288.965 66.8837 280.038 50.1882 271.399C33.0972 262.569 16.9498 254.224 16.9498 242.003C16.9498 241.302 16.8368 240.63 16.6786 239.975C16.8368 239.33 16.9441 238.664 16.9441 237.969C16.9441 225.748 33.0859 217.403 50.1769 208.572C66.8781 199.939 84.1499 191.012 90.5738 175.792C97.1729 160.164 91.0654 141.265 85.1499 122.982C79.5282 105.586 74.2117 89.1557 81.6978 81.6809C89.5512 73.8105 105.614 77.8559 122.631 82.1329C139.977 86.4889 157.904 91.0145 173.08 84.5849C187.837 78.3474 197.267 62.8327 206.391 47.8322C216.047 31.939 225.166 16.9328 237.986 16.9328C250.969 16.9328 260.303 31.6621 270.179 47.2616C279.405 61.8157 288.937 76.8671 303.547 83.0538C318.61 89.4212 336.3 85.3137 353.408 81.3419C370.318 77.4208 386.302 73.7088 394.274 81.6921C401.534 88.941 395.613 105.122 389.353 122.253C382.618 140.672 375.652 159.718 382.364 175.599C388.844 190.911 406.873 199.894 424.303 208.578C442.157 217.471 459.022 225.878 459.022 237.969C459.022 238.669 459.135 239.342 459.293 239.992C459.135 240.636 459.028 241.302 459.028 241.997C459.028 254.105 442.163 262.506 424.309 271.399Z" fill="white"/>
</g>
</svg>
