<svg width="425" height="333" viewBox="0 0 425 333" fill="none" xmlns="http://www.w3.org/2000/svg">
<path d="M76.25 315V329H73.3558V317.337H69.625L69.3942 322.279C69.2981 323.946 69.0865 325.26 68.7596 326.221C68.4327 327.176 67.9551 327.878 67.3269 328.327C66.6987 328.769 65.8397 328.994 64.75 329H64V326.683L64.4808 326.635C65.2051 326.538 65.7212 326.122 66.0288 325.385C66.3429 324.641 66.5417 323.321 66.625 321.423L66.8654 315H76.25Z" fill="white"/>
<path d="M84.3596 329.192C82.834 329.192 81.5904 328.724 80.6288 327.788C79.6737 326.853 79.1962 325.606 79.1962 324.048V323.779C79.1962 322.734 79.3981 321.801 79.8019 320.981C80.2058 320.154 80.7763 319.519 81.5135 319.077C82.2571 318.628 83.1032 318.404 84.0519 318.404C85.475 318.404 86.5936 318.853 87.4077 319.75C88.2282 320.647 88.6385 321.92 88.6385 323.567V324.702H82.0135C82.1032 325.381 82.3724 325.926 82.8212 326.337C83.2763 326.747 83.85 326.952 84.5423 326.952C85.6128 326.952 86.4494 326.564 87.0519 325.788L88.4173 327.317C88.0006 327.907 87.4365 328.369 86.725 328.702C86.0135 329.029 85.225 329.192 84.3596 329.192ZM84.0423 320.654C83.491 320.654 83.0423 320.84 82.6962 321.212C82.3564 321.583 82.1385 322.115 82.0423 322.808H85.9077V322.587C85.8949 321.971 85.7282 321.497 85.4077 321.163C85.0872 320.824 84.6321 320.654 84.0423 320.654Z" fill="white"/>
<path d="M99.7288 320.827H96.3923V329H93.6038V320.827H90.325V318.596H99.7288V320.827Z" fill="white"/>
<path d="M117.025 329H114.237V325H110.785V329H108.006V318.596H110.785V322.769H114.237V318.596H117.025V329Z" fill="white"/>
<path d="M126.192 329C126.064 328.75 125.971 328.439 125.913 328.067C125.24 328.817 124.365 329.192 123.288 329.192C122.269 329.192 121.423 328.897 120.75 328.308C120.083 327.718 119.75 326.974 119.75 326.077C119.75 324.974 120.157 324.128 120.971 323.538C121.792 322.949 122.974 322.651 124.519 322.644H125.798V322.048C125.798 321.567 125.673 321.183 125.423 320.894C125.179 320.606 124.792 320.462 124.26 320.462C123.792 320.462 123.423 320.574 123.154 320.798C122.891 321.022 122.76 321.33 122.76 321.721H119.981C119.981 321.119 120.167 320.561 120.538 320.048C120.91 319.535 121.436 319.135 122.115 318.846C122.795 318.551 123.558 318.404 124.404 318.404C125.686 318.404 126.702 318.728 127.452 319.375C128.208 320.016 128.587 320.92 128.587 322.087V326.596C128.593 327.583 128.731 328.33 129 328.837V329H126.192ZM123.894 327.067C124.304 327.067 124.683 326.978 125.029 326.798C125.375 326.612 125.631 326.365 125.798 326.058V324.269H124.76C123.369 324.269 122.628 324.75 122.538 325.712L122.529 325.875C122.529 326.221 122.651 326.506 122.894 326.731C123.138 326.955 123.471 327.067 123.894 327.067Z" fill="white"/>
<path d="M146.96 323.894C146.96 325.497 146.594 326.782 145.863 327.75C145.139 328.712 144.158 329.192 142.921 329.192C141.87 329.192 141.021 328.827 140.373 328.096V333H137.594V318.596H140.171L140.267 319.615C140.94 318.808 141.819 318.404 142.902 318.404C144.184 318.404 145.181 318.878 145.892 319.827C146.604 320.776 146.96 322.083 146.96 323.75V323.894ZM144.181 323.692C144.181 322.724 144.008 321.978 143.662 321.452C143.322 320.926 142.825 320.663 142.171 320.663C141.299 320.663 140.7 320.997 140.373 321.663V325.923C140.713 326.609 141.319 326.952 142.19 326.952C143.517 326.952 144.181 325.865 144.181 323.692Z" fill="white"/>
<path d="M152.646 321.644H154.637C155.534 321.644 156.322 321.795 157.002 322.096C157.681 322.397 158.201 322.83 158.56 323.394C158.925 323.952 159.108 324.603 159.108 325.346C159.108 326.442 158.701 327.327 157.887 328C157.079 328.667 155.976 329 154.579 329H149.858V318.596H152.646V321.644ZM163.531 329H160.752V318.596H163.531V329ZM152.646 323.875V326.779H154.617C155.169 326.779 155.592 326.651 155.887 326.394C156.181 326.138 156.329 325.788 156.329 325.346C156.329 324.897 156.185 324.542 155.896 324.279C155.608 324.01 155.181 323.875 154.617 323.875H152.646Z" fill="white"/>
<path d="M175.987 329H173.198V325H169.746V329H166.967V318.596H169.746V322.769H173.198V318.596H175.987V329Z" fill="white"/>
<path d="M183.202 325.163H182.087V329H179.308V318.596H182.087V322.51H183.077L185.346 318.596H188.856L185.452 323.548L189.173 329H185.471L183.202 325.163Z" fill="white"/>
<path d="M195.84 329.192C194.315 329.192 193.071 328.724 192.11 327.788C191.154 326.853 190.677 325.606 190.677 324.048V323.779C190.677 322.734 190.879 321.801 191.283 320.981C191.687 320.154 192.257 319.519 192.994 319.077C193.738 318.628 194.584 318.404 195.533 318.404C196.956 318.404 198.074 318.853 198.888 319.75C199.709 320.647 200.119 321.92 200.119 323.567V324.702H193.494C193.584 325.381 193.853 325.926 194.302 326.337C194.757 326.747 195.331 326.952 196.023 326.952C197.094 326.952 197.93 326.564 198.533 325.788L199.898 327.317C199.481 327.907 198.917 328.369 198.206 328.702C197.494 329.029 196.706 329.192 195.84 329.192ZM195.523 320.654C194.972 320.654 194.523 320.84 194.177 321.212C193.837 321.583 193.619 322.115 193.523 322.808H197.388V322.587C197.376 321.971 197.209 321.497 196.888 321.163C196.568 320.824 196.113 320.654 195.523 320.654Z" fill="white"/>
<path d="M212.906 326.952C213.419 326.952 213.835 326.811 214.156 326.529C214.476 326.247 214.643 325.872 214.656 325.404H217.262C217.255 326.109 217.063 326.756 216.685 327.346C216.306 327.929 215.787 328.385 215.127 328.712C214.473 329.032 213.749 329.192 212.954 329.192C211.467 329.192 210.294 328.721 209.435 327.779C208.576 326.83 208.146 325.522 208.146 323.856V323.673C208.146 322.071 208.572 320.792 209.425 319.837C210.278 318.881 211.447 318.404 212.935 318.404C214.236 318.404 215.278 318.776 216.06 319.519C216.848 320.256 217.249 321.24 217.262 322.471H214.656C214.643 321.933 214.476 321.497 214.156 321.163C213.835 320.824 213.412 320.654 212.887 320.654C212.239 320.654 211.749 320.891 211.415 321.365C211.088 321.833 210.925 322.596 210.925 323.654V323.942C210.925 325.013 211.088 325.782 211.415 326.25C211.742 326.718 212.239 326.952 212.906 326.952Z" fill="white"/>
<path d="M228.467 320.827H225.131V329H222.342V320.827H219.063V318.596H228.467V320.827Z" fill="white"/>
<path d="M240.221 323.894C240.221 325.497 239.856 326.782 239.125 327.75C238.401 328.712 237.42 329.192 236.183 329.192C235.131 329.192 234.282 328.827 233.635 328.096V333H230.856V318.596H233.433L233.529 319.615C234.202 318.808 235.08 318.404 236.163 318.404C237.446 318.404 238.442 318.878 239.154 319.827C239.865 320.776 240.221 322.083 240.221 323.75V323.894ZM237.442 323.692C237.442 322.724 237.269 321.978 236.923 321.452C236.583 320.926 236.087 320.663 235.433 320.663C234.561 320.663 233.962 320.997 233.635 321.663V325.923C233.974 326.609 234.58 326.952 235.452 326.952C236.779 326.952 237.442 325.865 237.442 323.692Z" fill="white"/>
<path d="M248.965 329C248.837 328.75 248.744 328.439 248.687 328.067C248.013 328.817 247.138 329.192 246.062 329.192C245.042 329.192 244.196 328.897 243.523 328.308C242.856 327.718 242.523 326.974 242.523 326.077C242.523 324.974 242.93 324.128 243.744 323.538C244.565 322.949 245.747 322.651 247.292 322.644H248.571V322.048C248.571 321.567 248.446 321.183 248.196 320.894C247.953 320.606 247.565 320.462 247.033 320.462C246.565 320.462 246.196 320.574 245.927 320.798C245.664 321.022 245.533 321.33 245.533 321.721H242.754C242.754 321.119 242.94 320.561 243.312 320.048C243.683 319.535 244.209 319.135 244.888 318.846C245.568 318.551 246.331 318.404 247.177 318.404C248.459 318.404 249.475 318.728 250.225 319.375C250.981 320.016 251.36 320.92 251.36 322.087V326.596C251.366 327.583 251.504 328.33 251.773 328.837V329H248.965ZM246.667 327.067C247.078 327.067 247.456 326.978 247.802 326.798C248.148 326.612 248.404 326.365 248.571 326.058V324.269H247.533C246.142 324.269 245.401 324.75 245.312 325.712L245.302 325.875C245.302 326.221 245.424 326.506 245.667 326.731C245.911 326.955 246.244 327.067 246.667 327.067Z" fill="white"/>
<path d="M258.44 321.702L260.19 318.596H263.162L260.2 323.692L263.287 329H260.306L258.45 325.731L256.604 329H253.613L256.7 323.692L253.748 318.596H256.729L258.44 321.702Z" fill="white"/>
<path d="M264.665 323.702C264.665 322.67 264.864 321.75 265.262 320.942C265.659 320.135 266.229 319.51 266.973 319.067C267.723 318.625 268.592 318.404 269.579 318.404C270.983 318.404 272.127 318.833 273.012 319.692C273.903 320.551 274.399 321.718 274.502 323.192L274.521 323.904C274.521 325.5 274.076 326.782 273.185 327.75C272.294 328.712 271.098 329.192 269.598 329.192C268.098 329.192 266.899 328.712 266.002 327.75C265.111 326.788 264.665 325.481 264.665 323.827V323.702ZM267.444 323.904C267.444 324.891 267.63 325.647 268.002 326.173C268.374 326.692 268.906 326.952 269.598 326.952C270.271 326.952 270.797 326.696 271.175 326.183C271.553 325.663 271.742 324.837 271.742 323.702C271.742 322.734 271.553 321.984 271.175 321.452C270.797 320.92 270.265 320.654 269.579 320.654C268.899 320.654 268.374 320.92 268.002 321.452C267.63 321.978 267.444 322.795 267.444 323.904Z" fill="white"/>
<path d="M277.4 329V318.596H281.746C283.163 318.596 284.249 318.846 285.006 319.346C285.762 319.846 286.14 320.564 286.14 321.5C286.14 321.981 285.98 322.413 285.66 322.798C285.346 323.176 284.884 323.468 284.275 323.673C285.019 323.814 285.602 324.093 286.025 324.51C286.454 324.92 286.669 325.426 286.669 326.029C286.669 326.997 286.304 327.734 285.573 328.24C284.849 328.747 283.794 329 282.41 329H277.4ZM280.179 324.683V326.779H282.419C283.4 326.779 283.89 326.436 283.89 325.75C283.89 325.051 283.422 324.696 282.487 324.683H280.179ZM280.179 322.817H281.9C282.874 322.804 283.362 322.49 283.362 321.875C283.362 321.497 283.227 321.228 282.958 321.067C282.695 320.907 282.291 320.827 281.746 320.827H280.179V322.817Z" fill="white"/>
<path d="M295.385 329C295.256 328.75 295.163 328.439 295.106 328.067C294.433 328.817 293.558 329.192 292.481 329.192C291.462 329.192 290.615 328.897 289.942 328.308C289.276 327.718 288.942 326.974 288.942 326.077C288.942 324.974 289.349 324.128 290.163 323.538C290.984 322.949 292.167 322.651 293.712 322.644H294.99V322.048C294.99 321.567 294.865 321.183 294.615 320.894C294.372 320.606 293.984 320.462 293.452 320.462C292.984 320.462 292.615 320.574 292.346 320.798C292.083 321.022 291.952 321.33 291.952 321.721H289.173C289.173 321.119 289.359 320.561 289.731 320.048C290.103 319.535 290.628 319.135 291.308 318.846C291.987 318.551 292.75 318.404 293.596 318.404C294.878 318.404 295.894 318.728 296.644 319.375C297.401 320.016 297.779 320.92 297.779 322.087V326.596C297.785 327.583 297.923 328.33 298.192 328.837V329H295.385ZM293.087 327.067C293.497 327.067 293.875 326.978 294.221 326.798C294.567 326.612 294.824 326.365 294.99 326.058V324.269H293.952C292.561 324.269 291.821 324.75 291.731 325.712L291.721 325.875C291.721 326.221 291.843 326.506 292.087 326.731C292.33 326.955 292.663 327.067 293.087 327.067Z" fill="white"/>
<path d="M309.917 329H307.129V325H303.677V329H300.898V318.596H303.677V322.769H307.129V318.596H309.917V329Z" fill="white"/>
<path d="M319.325 318.596H322.104V329H319.325V322.577L315.844 329H313.056V318.596H315.844V325.01L319.325 318.596Z" fill="white"/>
<path d="M333.887 318.596V329H331.117V325.404H329.358L327.358 329H324.54L326.81 324.933C326.188 324.644 325.707 324.253 325.367 323.76C325.034 323.266 324.867 322.705 324.867 322.077C324.867 321.071 325.255 320.247 326.031 319.606C326.813 318.958 327.858 318.622 329.165 318.596H333.887ZM329.213 323.462H331.117V320.827H329.31C328.816 320.827 328.415 320.958 328.108 321.221C327.8 321.478 327.646 321.792 327.646 322.163C327.646 322.535 327.794 322.843 328.088 323.087C328.383 323.33 328.758 323.455 329.213 323.462Z" fill="white"/>
<g opacity="0.7">
<path d="M134.146 295.989H66.4721V80.2139L0 99.6658V48.3289L127.939 4.01069H134.146V295.989Z" fill="white"/>
<path d="M424.46 176.671C424.46 216.11 415.584 246.524 397.832 267.914C380.212 289.305 355.319 300 323.151 300C290.715 300 265.621 289.238 247.869 267.714C230.116 246.19 221.24 215.842 221.24 176.671V123.329C221.24 83.8904 230.05 53.4759 247.669 32.0856C265.421 10.6952 290.448 0 322.75 0C355.052 0 380.079 10.762 397.832 32.2861C415.584 53.8102 424.46 84.2246 424.46 123.529V176.671ZM356.987 114.706C356.987 93.7166 354.251 78.0749 348.778 67.7807C343.306 57.3529 334.63 52.139 322.75 52.139C311.138 52.139 302.662 56.9519 297.323 66.5775C292.117 76.2032 289.314 90.7754 288.913 110.294V184.893C288.913 206.684 291.65 222.66 297.122 232.821C302.595 242.848 311.271 247.861 323.151 247.861C334.63 247.861 343.106 242.981 348.578 233.222C354.051 223.329 356.854 207.888 356.987 186.898V114.706Z" fill="white"/>
</g>
</svg>
