<svg width="308" height="480" viewBox="0 0 308 480" fill="none" xmlns="http://www.w3.org/2000/svg">
<g opacity="0.1">
<path d="M376.604 79.6387C376.587 79.3439 376.558 79.0549 376.517 78.7658C376.471 78.4826 376.419 78.2051 376.349 77.9334C376.28 77.6617 376.199 77.39 376.1 77.1299C376.002 76.864 375.897 76.6038 375.77 76.3495C375.648 76.1009 375.521 75.8639 375.376 75.6327C375.231 75.3899 375.075 75.1587 374.906 74.9332C374.738 74.7135 374.565 74.4996 374.379 74.2973C374.194 74.095 374.003 73.8985 373.8 73.7135C373.591 73.5227 373.377 73.3435 373.145 73.1759C372.925 73.014 372.705 72.8579 372.467 72.7192C372.224 72.5689 371.974 72.4359 371.719 72.3145C371.465 72.1932 371.21 72.0833 370.943 71.985C370.676 71.8868 370.41 71.8058 370.132 71.7365C369.848 71.6613 369.558 71.6035 369.263 71.5573C369.112 71.5341 368.973 71.4821 368.822 71.4706C299.773 64.5799 245.773 50.5732 189.994 2.13079C186.373 -1.01392 180.873 -0.632396 177.733 2.97477C177.53 3.206 177.379 3.46614 177.205 3.71471C121.113 51.9953 74.2697 64.8458 7.82854 71.4648C3.38406 71.9099 0 75.6385 0 80.0954V283.178C0 283.947 0.1043 284.71 0.307112 285.45C35.5558 415.135 177.715 476.745 183.748 479.306C184.837 479.769 185.996 480 187.149 480C188.291 480 189.444 479.775 190.516 479.324C196.623 476.769 340.411 415.163 375.66 285.456C375.782 284.999 375.874 284.536 375.921 284.062L376.604 277.351C376.633 277.062 376.651 276.767 376.651 276.472V80.1012C376.651 79.9335 376.616 79.789 376.604 79.6387ZM358.699 281.577C328.277 391.983 208.896 451.732 187.166 461.797C165.628 451.703 47.9795 392.087 17.3781 281.999V87.8936C80.3599 80.9394 129.209 66.5396 184.57 20.1782C239.434 65.5742 294.622 80.7255 359.261 87.8647V276.021L358.699 281.577Z" fill="white"/>
<path d="M269.45 187.033H261.106C256.517 148.632 223.447 118.734 183.406 118.734C143.365 118.734 110.295 148.632 105.711 187.033H95.6171C90.8191 187.033 86.9251 190.912 86.9251 195.704V322.88C86.9251 327.672 90.8191 331.551 95.6171 331.551H269.456C274.254 331.551 278.148 327.672 278.148 322.88V195.704C278.142 190.912 274.248 187.033 269.45 187.033ZM183.4 136.076C213.833 136.076 239.051 158.228 243.531 187.033H123.269C127.754 158.228 152.967 136.076 183.4 136.076ZM260.758 204.375V314.209H104.303V204.375H260.758Z" fill="white"/>
</g>
</svg>
