<svg width="40" height="40" viewBox="0 0 40 40" fill="none" xmlns="http://www.w3.org/2000/svg">
<path d="M25.2113 9.92432H14.6893C12.0563 9.92432 9.914 12.0666 9.914 14.6996V25.3181C9.914 27.9512 12.0563 30.0934 14.6893 30.0934H25.2113C27.8443 30.0934 29.9866 27.9512 29.9866 25.3181V14.6996C29.9866 12.0666 27.8443 9.92432 25.2113 9.92432ZM19.9704 26.367C16.4013 26.367 13.4977 23.4942 13.4977 19.9633C13.4977 16.4323 16.4017 13.5595 19.9704 13.5595C23.5391 13.5595 26.443 16.4323 26.443 19.9633C26.443 23.4942 23.5395 26.367 19.9704 26.367ZM26.5582 14.8205C25.7171 14.8205 25.0353 14.1387 25.0353 13.2975C25.0353 12.4564 25.7171 11.7746 26.5582 11.7746C27.3994 11.7746 28.0812 12.4564 28.0812 13.2975C28.0812 14.1387 27.3994 14.8205 26.5582 14.8205Z" fill="white"/>
<path d="M20 0C8.95441 0 0 8.95441 0 20C0 31.0456 8.95441 40 20 40C31.0456 40 40 31.0456 40 20C40 8.95441 31.0456 0 20 0ZM32.3487 25.3184C32.3487 29.2541 29.1467 32.4558 25.2113 32.4558H14.6893C10.7536 32.4558 7.55191 29.2537 7.55191 25.3184V14.6999C7.55191 10.7641 10.754 7.56246 14.6893 7.56246H25.2113C29.1471 7.56246 32.3487 10.7645 32.3487 14.6999V25.3184Z" fill="white"/>
<path d="M19.9704 15.9175C17.7012 15.9175 15.8554 17.7325 15.8554 19.9636C15.8554 22.1947 17.7012 24.0096 19.9704 24.0096C22.2396 24.0096 24.0854 22.1947 24.0854 19.9636C24.0854 17.7325 22.2396 15.9175 19.9704 15.9175Z" fill="white"/>
</svg>
