<svg width="40" height="40" viewBox="0 0 40 40" fill="none" xmlns="http://www.w3.org/2000/svg">
<path d="M20 0C8.95441 0 0 8.95441 0 20C0 31.0456 8.95441 40 20 40C31.0456 40 40 31.0456 40 20C40 8.95441 31.0456 0 20 0ZM28.6729 22.6436C28.8303 22.8383 29.2047 23.2175 29.7968 23.782H29.8106L29.8244 23.7954L29.8382 23.8096L29.8662 23.8372C31.1705 25.0491 32.0539 26.0715 32.5166 26.9042C32.5446 26.95 32.5746 27.0084 32.6071 27.0778C32.6391 27.1471 32.6716 27.2696 32.704 27.4452C32.736 27.6217 32.7336 27.7782 32.6971 27.9169C32.6602 28.0552 32.5446 28.1834 32.3503 28.2986C32.1561 28.4146 31.8831 28.4722 31.5315 28.4722L27.979 28.5281C27.7571 28.5744 27.498 28.5513 27.2019 28.4588C26.9054 28.3659 26.6653 28.2641 26.4804 28.1534L26.2025 27.9863C25.9247 27.792 25.6011 27.4959 25.2312 27.0985C24.8609 26.7006 24.5441 26.3421 24.2805 26.0229C24.0169 25.7037 23.7346 25.436 23.4336 25.2178C23.1327 25.0004 22.8715 24.9286 22.6497 25.0028C22.6221 25.0126 22.5848 25.0288 22.5385 25.0515C22.4919 25.0746 22.4136 25.1411 22.3025 25.2527C22.1914 25.3638 22.092 25.5005 22.004 25.6619C21.916 25.8241 21.8373 26.0646 21.7679 26.3838C21.6986 26.7026 21.6682 27.0616 21.6779 27.4594C21.6779 27.5977 21.6613 27.7255 21.6292 27.8411C21.5968 27.9567 21.5619 28.0423 21.525 28.0974L21.4694 28.1668C21.3027 28.3432 21.0578 28.4446 20.7341 28.4722H19.1381C18.4811 28.5095 17.8058 28.4332 17.1123 28.2434C16.4187 28.0532 15.8099 27.8086 15.2876 27.5077C14.7644 27.2076 14.2882 26.9022 13.8583 26.5923C13.428 26.282 13.1019 26.0164 12.88 25.7945L12.5333 25.4611C12.4408 25.3691 12.3134 25.23 12.1516 25.0446C11.9898 24.8597 11.6592 24.4391 11.1596 23.782C10.6599 23.125 10.1695 22.427 9.68851 21.6864C9.2075 20.9462 8.6409 19.97 7.98832 18.7581C7.33614 17.5466 6.73264 16.2885 6.1774 14.9838C6.12184 14.8361 6.09385 14.7112 6.09385 14.6094C6.09385 14.508 6.10764 14.4338 6.13563 14.3872L6.19119 14.304C6.3299 14.128 6.59353 14.04 6.98207 14.04L10.7844 14.0124C10.8955 14.0311 11.0018 14.0611 11.1036 14.1029C11.2054 14.1442 11.2796 14.1836 11.3258 14.2205L11.3952 14.2622C11.5432 14.3645 11.654 14.5121 11.7282 14.7064C11.9131 15.1695 12.1261 15.6481 12.3666 16.1429C12.6071 16.6377 12.7969 17.0149 12.9356 17.2737L13.1574 17.6764C13.4255 18.2313 13.6847 18.7127 13.9345 19.1195C14.1848 19.5267 14.4087 19.8439 14.6078 20.0702C14.8065 20.2969 14.9984 20.4753 15.1837 20.6043C15.3687 20.7341 15.526 20.799 15.6558 20.799C15.7852 20.799 15.9101 20.7759 16.0306 20.7296C16.0488 20.7203 16.0719 20.6972 16.0999 20.6603C16.1279 20.6234 16.1831 20.5216 16.2666 20.3545C16.3498 20.1882 16.4122 19.9708 16.454 19.7023C16.4958 19.4346 16.5396 19.0599 16.5858 18.5788C16.6321 18.0974 16.6321 17.5195 16.5858 16.8442C16.5672 16.4739 16.5254 16.1364 16.4609 15.831C16.396 15.526 16.3311 15.3131 16.2666 15.1927L16.1831 15.0264C15.9519 14.712 15.5589 14.5129 15.0036 14.4293C14.8832 14.4115 14.9063 14.3004 15.073 14.0968C15.2304 13.9207 15.406 13.7824 15.6003 13.6802C16.0906 13.4401 17.1962 13.329 18.9171 13.3469C19.6755 13.3566 20.3001 13.4162 20.7905 13.5273C20.9754 13.574 21.1304 13.636 21.2553 13.7147C21.3802 13.793 21.4751 13.9045 21.54 14.0473C21.6045 14.1909 21.6531 14.3389 21.6856 14.4914C21.718 14.6443 21.7343 14.8552 21.7343 15.1229C21.7343 15.3914 21.7298 15.6461 21.7205 15.8862C21.7111 16.1267 21.6998 16.4532 21.686 16.8645C21.6722 17.2761 21.6649 17.6582 21.6649 18.0094C21.6649 18.1116 21.6604 18.3055 21.6511 18.5922C21.6418 18.8794 21.639 19.1012 21.6442 19.2582C21.6487 19.4156 21.6649 19.6033 21.6925 19.8203C21.7205 20.0377 21.7736 20.2186 21.8523 20.3614C21.9306 20.5049 22.0348 20.6181 22.1646 20.7013C22.2384 20.7203 22.3171 20.7386 22.4006 20.7572C22.4838 20.7755 22.6038 20.7252 22.7612 20.6043C22.9182 20.4843 23.0942 20.3245 23.2884 20.1257C23.4827 19.9274 23.7232 19.6175 24.01 19.1961C24.2963 18.776 24.611 18.2783 24.9534 17.7044C25.5086 16.7424 26.0034 15.7012 26.4382 14.5818C26.4751 14.489 26.5213 14.4083 26.5769 14.3389C26.6325 14.2691 26.6832 14.2205 26.7294 14.1929L26.785 14.1511C26.8032 14.1418 26.8263 14.1304 26.8543 14.1166C26.8823 14.1033 26.9423 14.0891 27.0348 14.0749C27.1273 14.0615 27.2197 14.0591 27.3126 14.0684L31.3092 14.04C31.6698 13.9942 31.9659 14.0055 32.197 14.0745C32.4282 14.1438 32.5718 14.2205 32.6274 14.3036L32.7109 14.4423C32.9234 15.0349 32.2299 16.394 30.6295 18.5221C30.4072 18.8185 30.1063 19.212 29.7274 19.7019C29.0059 20.6274 28.5898 21.2334 28.4795 21.5209C28.3213 21.8993 28.3862 22.2741 28.6729 22.6436Z" fill="white"/>
</svg>
