<svg width="40" height="40" viewBox="0 0 40 40" fill="none" xmlns="http://www.w3.org/2000/svg">
<path d="M32.7651 15.2377C32.8102 8.18623 27.1103 2.41261 20.0592 2.36717C12.9985 2.32532 7.23406 8.02201 7.18862 15.0731C7.15594 20.1731 10.129 24.6027 14.4442 26.6821L14.4861 37.822C14.4869 38.0612 14.63 38.2764 14.85 38.3697C14.9253 38.402 15.005 38.4175 15.084 38.4175C15.235 38.4175 15.3837 38.3601 15.4973 38.2521L19.9161 34.0314L24.3648 38.2226C24.5386 38.3868 24.7945 38.4303 25.0125 38.3358C25.2317 38.2409 25.3732 38.0245 25.3724 37.7853L25.3346 26.7635C29.69 24.7446 32.7325 20.3473 32.7651 15.2377ZM24.1719 36.3982L20.3227 32.7722C20.0915 32.5542 19.73 32.5554 19.5 32.775L15.6767 36.4269L15.642 27.1848C16.9717 27.6655 18.4022 27.9341 19.8946 27.9437C19.9225 27.9437 19.95 27.9441 19.9779 27.9441C21.4343 27.9441 22.8338 27.6958 24.14 27.2446L24.1719 36.3982ZM19.9779 26.7483C19.9532 26.7483 19.9273 26.7479 19.9025 26.7479C13.5103 26.7069 8.34335 21.4733 8.3848 15.0807C8.42585 8.71357 13.6183 3.56255 19.9763 3.56255C20.001 3.56255 20.0269 3.56255 20.0516 3.56255C26.4435 3.60401 31.6104 8.83753 31.5694 15.2298C31.5287 21.5969 26.3358 26.7483 19.9779 26.7483Z" fill="white"/>
<path d="M25.7894 13.3182L22.1542 12.7665L20.5495 9.46059C20.4502 9.25571 20.2429 9.12537 20.0157 9.12378C20.0145 9.12378 20.0133 9.12378 20.0118 9.12378C19.7858 9.12378 19.5789 9.25133 19.4772 9.45381L17.8303 12.739L14.1899 13.2436C13.9647 13.2751 13.7762 13.4314 13.7048 13.6474C13.6331 13.8634 13.6901 14.1014 13.8523 14.2612L16.4675 16.8437L15.8233 20.4622C15.7835 20.6862 15.874 20.9134 16.0573 21.0485C16.2407 21.1836 16.4846 21.2023 16.6867 21.0979L19.95 19.4087L23.1933 21.1398C23.2818 21.1868 23.3783 21.2103 23.4747 21.2103C23.5975 21.2103 23.7195 21.1724 23.8231 21.0983C24.008 20.966 24.1017 20.74 24.0646 20.5152L23.4668 16.8888L26.115 14.3398C26.2788 14.1819 26.339 13.9448 26.2705 13.7279C26.2007 13.5115 26.015 13.3525 25.7894 13.3182ZM22.4109 16.2454C22.2694 16.3818 22.2032 16.5791 22.2355 16.7736L22.6875 19.5147L20.2358 18.2057C20.1477 18.1587 20.0508 18.1352 19.954 18.1352C19.8595 18.1352 19.7654 18.1575 19.6793 18.2021L17.2128 19.4788L17.6995 16.7437C17.7342 16.55 17.6712 16.3519 17.5309 16.2136L15.5543 14.2616L18.3062 13.8798C18.5011 13.8527 18.6705 13.7315 18.7586 13.5557L20.0034 11.0729L21.2163 13.5717C21.3024 13.7487 21.4702 13.8722 21.6647 13.9017L24.413 14.3186L22.4109 16.2454Z" fill="white"/>
</svg>
