<svg width="50" height="50" viewBox="0 0 50 50" fill="none" xmlns="http://www.w3.org/2000/svg">
<path d="M0 11.3821C0 5.09595 5.09595 0 11.3821 0H38.6179C44.9041 0 50 5.09595 50 11.3821V38.6179C50 44.9041 44.9041 50 38.6179 50H11.3821C5.09595 50 0 44.9041 0 38.6179V11.3821Z" fill="#2F80ED"/>
<path fill-rule="evenodd" clip-rule="evenodd" d="M42.3342 17.7095L40.5582 32.3428C40.3777 33.8301 39.6992 35.2411 38.5863 36.247L28.5225 45.3435C26.4794 47.1902 23.5206 47.1902 21.4775 45.3435L11.4137 36.247C10.3008 35.2411 9.62231 33.8301 9.44181 32.3428L7.66585 17.7095C7.37174 15.2861 8.4214 12.7698 10.5292 11.5244C10.9156 11.296 11.2974 11.1688 11.5535 11.0906L22.7537 7.6717C22.8483 7.64281 22.8984 7.62367 22.9767 7.59372C23.0469 7.56685 23.1399 7.53129 23.3083 7.47219C24.408 7.08609 25.592 7.08609 26.6917 7.47219C26.8601 7.53129 26.9531 7.56685 27.0233 7.59372C27.1016 7.62366 27.1517 7.64281 27.2463 7.6717L38.4465 11.0906C38.7026 11.1688 39.0844 11.296 39.4708 11.5244C41.5786 12.7698 42.6283 15.2861 42.3342 17.7095ZM38.5079 13.1225C38.3166 13.0094 38.1058 12.934 37.893 12.869L26.6927 9.45011C26.557 9.40867 26.424 9.35901 26.291 9.30935C26.2154 9.28113 26.1398 9.25291 26.0637 9.2262C25.3703 8.98274 24.6297 8.98274 23.9363 9.22619C23.8602 9.25291 23.7846 9.28113 23.709 9.30935C23.576 9.35901 23.443 9.40867 23.3073 9.45011L12.107 12.869C11.8942 12.934 11.6834 13.0094 11.4921 13.1225C10.1122 13.9378 9.31296 15.685 9.53171 17.4874L11.3077 32.1208C11.4398 33.2093 11.932 34.1959 12.6806 34.8725L22.7444 43.969C24.0699 45.1671 25.9301 45.1671 27.2556 43.969L37.3194 34.8725C38.068 34.1959 38.5602 33.2093 38.6923 32.1208L40.4683 17.4874C40.687 15.685 39.8878 13.9378 38.5079 13.1225Z" fill="white"/>
<path d="M24.4617 5.08359C24.8164 4.96087 25.1835 4.96087 25.5383 5.08359C25.6198 5.11179 25.7008 5.14328 25.8023 5.18279L25.8364 5.19606C25.9468 5.23897 26.0807 5.29055 26.2231 5.33661L35.7901 8.43034C35.997 8.49727 36.12 8.54963 36.2063 8.60604C36.8294 9.0133 37.3194 9.81802 37.4541 10.7877L38.4465 11.0906C38.6735 11.1599 38.9993 11.2678 39.3396 11.4504C39.3752 9.75654 38.6338 8.09005 37.2708 7.19905C36.9662 6.99992 36.6425 6.88482 36.3981 6.80578L26.8311 3.71204C26.7478 3.68512 26.6607 3.65205 26.5504 3.60918L26.5158 3.59573C26.4192 3.55808 26.3026 3.51266 26.1837 3.47152C25.4126 3.20481 24.5874 3.20481 23.8163 3.47152C23.6974 3.51265 23.5809 3.55806 23.4842 3.5957L23.4496 3.60918C23.3393 3.65205 23.2522 3.68512 23.1689 3.71204L13.6019 6.80578C13.3575 6.88482 13.0338 6.99992 12.7292 7.19905C11.3661 8.09006 10.6248 9.75654 10.6604 11.4504C11.0007 11.2678 11.3265 11.1599 11.5534 11.0906L12.5459 10.7877C12.6806 9.81802 13.1706 9.0133 13.7937 8.60604C13.88 8.54963 14.003 8.49727 14.2099 8.43034L23.7769 5.33661C23.9193 5.29055 24.0532 5.23897 24.1636 5.19606L24.1977 5.18278C24.2992 5.14327 24.3802 5.11179 24.4617 5.08359Z" fill="#EB5757"/>
<path d="M16.878 20.307C17.8204 20.307 18.5441 20.5496 19.0493 21.0346C19.5642 21.51 19.8217 22.1988 19.8217 23.101C19.8217 24.1487 19.4962 24.9782 18.8453 25.5893C18.2041 26.2005 17.32 26.5061 16.1931 26.5061H15.1584V26.7244L15.2313 29.6639H13.7012L13.8032 26.8554L13.7012 20.3216L16.878 20.307ZM16.6303 25.342C17.1646 25.2353 17.5678 25.0073 17.8398 24.658C18.1215 24.2991 18.2624 23.8237 18.2624 23.232C18.2624 22.6499 18.1118 22.2182 17.8106 21.9368C17.5192 21.6555 17.0723 21.5051 16.47 21.4857L15.2313 21.5294L15.173 25.3129L16.6303 25.342Z" fill="white"/>
<path d="M25.2697 20.2197C26.2217 20.2197 27.0621 20.4332 27.7907 20.86L27.5138 22.1842L27.3681 22.2279C26.7172 21.7234 25.9983 21.4712 25.2114 21.4712C24.3564 21.4712 23.7007 21.7622 23.2441 22.3443C22.7972 22.9167 22.5737 23.7752 22.5737 24.92C22.5737 26.0938 22.802 26.9863 23.2586 27.5975C23.7152 28.2087 24.3662 28.5143 25.2114 28.5143C25.6194 28.5143 26.0226 28.4464 26.4209 28.3105C26.8289 28.165 27.203 27.9661 27.543 27.7139L27.6887 27.8012L27.5721 29.1691C26.7366 29.5765 25.9109 29.7803 25.0948 29.7803C23.7833 29.7803 22.7729 29.3728 22.0637 28.5579C21.3545 27.743 20.9999 26.5837 20.9999 25.08C20.9999 23.5278 21.3691 22.3297 22.1074 21.4857C22.8555 20.6417 23.9095 20.2197 25.2697 20.2197Z" fill="white"/>
<path d="M36.7334 29.6639H35.1887L34.9701 28.6161L34.5621 27.321L32.5802 27.2774L30.7878 27.321L30.3506 28.5434L30.1174 29.6639H28.6165L31.9536 20.3216H33.7169L36.7334 29.6639ZM34.1832 26.0987L32.8425 21.7913H32.7405L31.2104 26.0987L32.6822 26.1278L34.1832 26.0987Z" fill="white"/>
</svg>
