<svg width="146" height="60" viewBox="0 0 146 60" fill="none" xmlns="http://www.w3.org/2000/svg">
<path d="M59.8604 14.25H60.6086V45.078H59.8604V14.25Z" fill="white"/>
<path d="M76.2082 14.802C76.9585 14.802 77.5371 14.998 77.9442 15.39C78.3512 15.774 78.5547 16.33 78.5547 17.058C78.5547 17.914 78.2993 18.586 77.7885 19.074C77.2857 19.562 76.5873 19.806 75.6934 19.806H74.7835V20.106L74.8314 22.506H73.8617L73.9215 20.19L73.8617 14.814L76.2082 14.802ZM76.0526 19.026C76.5474 18.946 76.9225 18.746 77.1779 18.426C77.4413 18.106 77.573 17.678 77.573 17.142C77.573 16.15 77.0463 15.634 75.9927 15.594L74.8314 15.63L74.7955 19.002L76.0526 19.026Z" fill="white"/>
<path d="M83.6088 16.458C84.4788 16.458 85.1452 16.714 85.6082 17.226C86.0791 17.738 86.3145 18.462 86.3145 19.398C86.3145 20.414 86.0631 21.202 85.5603 21.762C85.0654 22.314 84.3551 22.59 83.4292 22.59C82.5672 22.59 81.9008 22.33 81.4299 21.81C80.959 21.282 80.7235 20.534 80.7235 19.566C80.7235 18.574 80.975 17.81 81.4778 17.274C81.9806 16.73 82.691 16.458 83.6088 16.458ZM83.525 17.214C82.8945 17.214 82.4236 17.394 82.1123 17.754C81.809 18.114 81.6574 18.682 81.6574 19.458C81.6574 20.29 81.809 20.894 82.1123 21.27C82.4156 21.646 82.8785 21.834 83.5011 21.834C84.1396 21.834 84.6145 21.65 84.9257 21.282C85.237 20.914 85.3927 20.338 85.3927 19.554C85.3927 18.746 85.237 18.154 84.9257 17.778C84.6224 17.402 84.1555 17.214 83.525 17.214Z" fill="white"/>
<path d="M91.4816 16.47C92.144 16.47 92.7187 16.61 93.2056 16.89L93.0379 17.718L92.9302 17.754C92.7307 17.586 92.4992 17.454 92.2358 17.358C91.9724 17.262 91.6891 17.214 91.3858 17.214C90.7952 17.214 90.3442 17.406 90.033 17.79C89.7217 18.166 89.566 18.73 89.566 19.482C89.566 20.242 89.7217 20.822 90.033 21.222C90.3442 21.622 90.7952 21.822 91.3858 21.822C91.6731 21.822 91.9605 21.774 92.2478 21.678C92.5431 21.574 92.8065 21.438 93.0379 21.27L93.1457 21.306L93.0619 22.134C92.5191 22.43 91.9485 22.578 91.3499 22.578C90.4719 22.578 89.7975 22.318 89.3266 21.798C88.8557 21.27 88.6202 20.522 88.6202 19.554C88.6202 18.57 88.8677 17.81 89.3625 17.274C89.8653 16.738 90.5717 16.47 91.4816 16.47Z" fill="white"/>
<path d="M98.3258 16.47C98.9882 16.47 99.5629 16.61 100.05 16.89L99.8821 17.718L99.7744 17.754C99.5748 17.586 99.3434 17.454 99.08 17.358C98.8166 17.262 98.5333 17.214 98.23 17.214C97.6394 17.214 97.1884 17.406 96.8771 17.79C96.5659 18.166 96.4102 18.73 96.4102 19.482C96.4102 20.242 96.5659 20.822 96.8771 21.222C97.1884 21.622 97.6394 21.822 98.23 21.822C98.5173 21.822 98.8046 21.774 99.092 21.678C99.3873 21.574 99.6507 21.438 99.8821 21.27L99.9899 21.306L99.9061 22.134C99.3633 22.43 98.7927 22.578 98.1941 22.578C97.3161 22.578 96.6417 22.318 96.1708 21.798C95.6999 21.27 95.4644 20.522 95.4644 19.554C95.4644 18.57 95.7119 17.81 96.2067 17.274C96.7095 16.738 97.4159 16.47 98.3258 16.47Z" fill="white"/>
<path d="M102.919 20.706L102.871 16.542L103.805 16.482L103.745 21.066H103.829L106.93 16.506H107.911L107.863 20.634L107.899 22.506H106.977L107.013 20.706V17.946H106.942L103.817 22.506H102.871L102.919 20.706Z" fill="white"/>
<path d="M115.519 14.586C115.391 14.922 115.176 15.182 114.873 15.366C114.569 15.542 114.214 15.63 113.807 15.63C113.4 15.63 113.053 15.542 112.766 15.366C112.478 15.19 112.267 14.93 112.131 14.586L112.61 14.25H112.742C112.821 14.522 112.949 14.722 113.125 14.85C113.3 14.97 113.536 15.03 113.831 15.03C114.126 15.03 114.358 14.97 114.525 14.85C114.701 14.722 114.833 14.522 114.921 14.25H115.04L115.519 14.586ZM111.365 20.706L111.317 16.542L112.251 16.482L112.191 21.066H112.275L115.375 16.506H116.357L116.309 20.634L116.345 22.506H115.423L115.459 20.706V17.946H115.387L112.263 22.506H111.317L111.365 20.706Z" fill="white"/>
<path d="M121.875 16.47C122.537 16.47 123.112 16.61 123.599 16.89L123.431 17.718L123.323 17.754C123.124 17.586 122.892 17.454 122.629 17.358C122.366 17.262 122.082 17.214 121.779 17.214C121.188 17.214 120.737 17.406 120.426 17.79C120.115 18.166 119.959 18.73 119.959 19.482C119.959 20.242 120.115 20.822 120.426 21.222C120.737 21.622 121.188 21.822 121.779 21.822C122.066 21.822 122.354 21.774 122.641 21.678C122.936 21.574 123.2 21.438 123.431 21.27L123.539 21.306L123.455 22.134C122.912 22.43 122.342 22.578 121.743 22.578C120.865 22.578 120.191 22.318 119.72 21.798C119.249 21.27 119.013 20.522 119.013 19.554C119.013 18.57 119.261 17.81 119.756 17.274C120.258 16.738 120.965 16.47 121.875 16.47Z" fill="white"/>
<path d="M128.359 19.326C129.205 20.366 130.103 21.358 131.053 22.302L131.029 22.434C130.782 22.514 130.494 22.574 130.167 22.614L130.024 22.554C129.002 21.402 128.12 20.346 127.378 19.386V19.314L129.437 17.058L129.832 16.53L130.898 16.518L128.359 19.326ZM127.282 20.634L127.306 22.506H126.42L126.456 20.706L126.42 16.53H127.318L127.282 20.634Z" fill="white"/>
<path d="M135.61 16.458C136.48 16.458 137.147 16.714 137.609 17.226C138.08 17.738 138.316 18.462 138.316 19.398C138.316 20.414 138.064 21.202 137.562 21.762C137.067 22.314 136.356 22.59 135.431 22.59C134.569 22.59 133.902 22.33 133.431 21.81C132.96 21.282 132.725 20.534 132.725 19.566C132.725 18.574 132.976 17.81 133.479 17.274C133.982 16.73 134.692 16.458 135.61 16.458ZM135.526 17.214C134.896 17.214 134.425 17.394 134.114 17.754C133.81 18.114 133.659 18.682 133.659 19.458C133.659 20.29 133.81 20.894 134.114 21.27C134.417 21.646 134.88 21.834 135.502 21.834C136.141 21.834 136.616 21.65 136.927 21.282C137.238 20.914 137.394 20.338 137.394 19.554C137.394 18.746 137.238 18.154 136.927 17.778C136.624 17.402 136.157 17.214 135.526 17.214Z" fill="white"/>
<path d="M144.824 21.738L144.896 21.81L144.812 22.506H141.184L141.22 20.706L141.184 16.53H144.836L144.896 16.602L144.824 17.298L143.315 17.25L142.07 17.262L142.058 19.074L143.243 19.086L144.285 19.05L144.345 19.134L144.273 19.842L143.172 19.806L142.058 19.818L142.046 20.634L142.058 21.774L143.231 21.786L144.824 21.738Z" fill="white"/>
<path d="M76.6631 26.004C77.4693 26.004 78.1676 26.196 78.7583 26.58L78.5667 27.456L78.459 27.48C77.9242 27.032 77.3096 26.808 76.6153 26.808C75.857 26.808 75.2744 27.072 74.8673 27.6C74.4603 28.12 74.2568 28.884 74.2568 29.892C74.2568 30.908 74.4603 31.684 74.8673 32.22C75.2744 32.756 75.849 33.024 76.5913 33.024C76.9425 33.024 77.2897 32.96 77.6329 32.832C77.9841 32.704 78.3033 32.524 78.5907 32.292L78.7104 32.352L78.6266 33.264C77.9322 33.648 77.2258 33.84 76.5075 33.84C75.4779 33.84 74.6798 33.508 74.1131 32.844C73.5464 32.172 73.2631 31.216 73.2631 29.976C73.2631 28.704 73.5584 27.724 74.149 27.036C74.7396 26.348 75.5777 26.004 76.6631 26.004Z" fill="white"/>
<path d="M85.0379 27.852L84.978 28.608L83.8646 28.524H83.266L83.2301 31.884L83.266 33.756H82.3681L82.404 31.956L82.3801 28.524H81.7815L80.6441 28.608L80.5723 28.524L80.6441 27.78H84.99L85.0379 27.852Z" fill="white"/>
<path d="M89.4528 27.768C90.0833 27.768 90.5662 27.92 90.9014 28.224C91.2446 28.528 91.4162 28.968 91.4162 29.544C91.4162 30.216 91.2007 30.744 90.7697 31.128C90.3467 31.504 89.7601 31.692 89.0098 31.692H88.2795V31.884L88.3035 33.756H87.4175L87.4534 31.956L87.4175 27.78L89.4528 27.768ZM89.2971 30.996C90.0873 30.86 90.4824 30.4 90.4824 29.616C90.4824 29.24 90.3746 28.96 90.1591 28.776C89.9516 28.592 89.6363 28.492 89.2133 28.476L88.3035 28.488L88.2915 30.972L89.2971 30.996Z" fill="white"/>
<path d="M97.9445 33.756H97.0466L96.903 33.108L96.5917 32.22L95.167 32.208L93.898 32.22L93.5747 33.06L93.4071 33.756H92.5212L94.8198 27.78H95.8494L97.9445 33.756ZM96.3403 31.488L95.3466 28.656H95.2748L94.1853 31.488L95.2388 31.5L96.3403 31.488Z" fill="white"/>
<path d="M102.765 30.636L104.908 33.756H103.83L103.555 33.24L102.166 31.332L100.718 33.288L100.454 33.756H99.5085L101.639 30.756L99.5683 27.78H100.682L100.933 28.284L102.238 30.072L103.543 28.272L103.794 27.78H104.764L102.765 30.636Z" fill="white"/>
<path d="M109.548 27.708C110.417 27.708 111.084 27.964 111.547 28.476C112.018 28.988 112.253 29.712 112.253 30.648C112.253 31.664 112.002 32.452 111.499 33.012C111.004 33.564 110.294 33.84 109.368 33.84C108.506 33.84 107.839 33.58 107.369 33.06C106.898 32.532 106.662 31.784 106.662 30.816C106.662 29.824 106.914 29.06 107.416 28.524C107.919 27.98 108.63 27.708 109.548 27.708ZM109.464 28.464C108.833 28.464 108.362 28.644 108.051 29.004C107.748 29.364 107.596 29.932 107.596 30.708C107.596 31.54 107.748 32.144 108.051 32.52C108.354 32.896 108.817 33.084 109.44 33.084C110.078 33.084 110.553 32.9 110.864 32.532C111.176 32.164 111.331 31.588 111.331 30.804C111.331 29.996 111.176 29.404 110.864 29.028C110.561 28.652 110.094 28.464 109.464 28.464Z" fill="white"/>
<path d="M117.911 30.648C118.797 30.824 119.24 31.296 119.24 32.064C119.24 32.64 119.017 33.072 118.57 33.36C118.123 33.648 117.468 33.792 116.606 33.792C116.087 33.792 115.589 33.78 115.11 33.756L115.146 31.956L115.11 27.78L116.977 27.768C117.576 27.768 118.039 27.896 118.366 28.152C118.701 28.4 118.869 28.756 118.869 29.22C118.869 29.564 118.785 29.856 118.617 30.096C118.45 30.336 118.214 30.52 117.911 30.648ZM117.923 29.328C117.923 29.032 117.827 28.816 117.636 28.68C117.444 28.544 117.137 28.476 116.714 28.476H115.984L115.972 30.324L117.037 30.36C117.332 30.296 117.552 30.184 117.696 30.024C117.847 29.856 117.923 29.624 117.923 29.328ZM116.714 33.108C117.233 33.108 117.628 33.02 117.899 32.844C118.179 32.66 118.318 32.392 118.318 32.04C118.318 31.752 118.222 31.528 118.031 31.368C117.839 31.208 117.548 31.1 117.157 31.044L115.972 31.056L115.96 31.884L115.984 33.072C116.231 33.096 116.474 33.108 116.714 33.108Z" fill="white"/>
<path d="M124.417 27.708C125.287 27.708 125.953 27.964 126.416 28.476C126.887 28.988 127.122 29.712 127.122 30.648C127.122 31.664 126.871 32.452 126.368 33.012C125.873 33.564 125.163 33.84 124.237 33.84C123.375 33.84 122.709 33.58 122.238 33.06C121.767 32.532 121.531 31.784 121.531 30.816C121.531 29.824 121.783 29.06 122.286 28.524C122.789 27.98 123.499 27.708 124.417 27.708ZM124.333 28.464C123.702 28.464 123.231 28.644 122.92 29.004C122.617 29.364 122.465 29.932 122.465 30.708C122.465 31.54 122.617 32.144 122.92 32.52C123.224 32.896 123.686 33.084 124.309 33.084C124.947 33.084 125.422 32.9 125.734 32.532C126.045 32.164 126.201 31.588 126.201 30.804C126.201 29.996 126.045 29.404 125.734 29.028C125.43 28.652 124.963 28.464 124.333 28.464Z" fill="white"/>
<path d="M133.63 32.988L133.702 33.06L133.618 33.756H129.991L130.027 31.956L129.991 27.78H133.642L133.702 27.852L133.63 28.548L132.122 28.5L130.877 28.512L130.865 30.324L132.05 30.336L133.092 30.3L133.151 30.384L133.08 31.092L131.978 31.056L130.865 31.068L130.853 31.884L130.865 33.024L132.038 33.036L133.63 32.988Z" fill="white"/>
<path d="M79.3329 45.006H78.3512L78.1716 44.238L77.7406 42.918L76.0167 42.882L74.4603 42.918L73.9934 44.19L73.8018 45.006H72.8441L75.6575 37.314H76.7709L79.3329 45.006ZM77.4772 42.102L76.2322 38.31H76.1483L74.7596 42.102L76.1005 42.126L77.4772 42.102Z" fill="white"/>
<path d="M85.2937 39.09L85.2099 39.774L83.869 39.75H82.8514L82.8274 43.134L82.8514 45.006H81.9295L81.9774 43.206L81.9295 39.006H85.2219L85.2937 39.09Z" fill="white"/>
<path d="M91.2909 44.238L91.3627 44.31L91.2789 45.006H87.6514L87.6873 43.206L87.6514 39.03H91.3028L91.3627 39.102L91.2909 39.798L89.7824 39.75L88.5373 39.762L88.5253 41.574L89.7105 41.586L90.7521 41.55L90.812 41.634L90.7401 42.342L89.6387 42.306L88.5253 42.318L88.5133 43.134L88.5253 44.274L89.6986 44.286L91.2909 44.238Z" fill="white"/>
<path d="M99.3 43.134L99.3239 45.006H98.438L98.4739 43.206L98.4619 42.39L95.2175 42.402L95.2055 43.134L95.2295 45.006H94.3436L94.3795 43.206L94.3436 39.03H95.2415L95.2175 41.598L96.8337 41.61L98.4619 41.598L98.438 39.03H99.3359L99.3 43.134Z" fill="white"/>
<path d="M106.015 39.102L105.955 39.858L104.841 39.774H104.243L104.207 43.134L104.243 45.006H103.345L103.381 43.206L103.357 39.774H102.758L101.621 39.858L101.549 39.774L101.621 39.03H105.967L106.015 39.102Z" fill="white"/>
<path d="M110.214 38.97C110.876 38.97 111.451 39.11 111.938 39.39L111.77 40.218L111.662 40.254C111.463 40.086 111.231 39.954 110.968 39.858C110.705 39.762 110.421 39.714 110.118 39.714C109.527 39.714 109.076 39.906 108.765 40.29C108.454 40.666 108.298 41.23 108.298 41.982C108.298 42.742 108.454 43.322 108.765 43.722C109.076 44.122 109.527 44.322 110.118 44.322C110.405 44.322 110.693 44.274 110.98 44.178C111.275 44.074 111.539 43.938 111.77 43.77L111.878 43.806L111.794 44.634C111.251 44.93 110.681 45.078 110.082 45.078C109.204 45.078 108.53 44.818 108.059 44.298C107.588 43.77 107.352 43.022 107.352 42.054C107.352 41.07 107.6 40.31 108.095 39.774C108.597 39.238 109.304 38.97 110.214 38.97Z" fill="white"/>
<path d="M118.195 39.102L118.135 39.858L117.022 39.774H116.423L116.387 43.134L116.423 45.006H115.525L115.561 43.206L115.537 39.774H114.938L113.801 39.858L113.729 39.774L113.801 39.03H118.147L118.195 39.102Z" fill="white"/>
<path d="M123.364 41.898C124.25 42.074 124.693 42.546 124.693 43.314C124.693 43.89 124.469 44.322 124.022 44.61C123.576 44.898 122.921 45.042 122.059 45.042C121.54 45.042 121.041 45.03 120.563 45.006L120.598 43.206L120.563 39.03L122.43 39.018C123.029 39.018 123.492 39.146 123.819 39.402C124.154 39.65 124.322 40.006 124.322 40.47C124.322 40.814 124.238 41.106 124.07 41.346C123.903 41.586 123.667 41.77 123.364 41.898ZM123.376 40.578C123.376 40.282 123.28 40.066 123.089 39.93C122.897 39.794 122.59 39.726 122.167 39.726H121.437L121.425 41.574L122.49 41.61C122.785 41.546 123.005 41.434 123.149 41.274C123.3 41.106 123.376 40.874 123.376 40.578ZM122.167 44.358C122.686 44.358 123.081 44.27 123.352 44.094C123.631 43.91 123.771 43.642 123.771 43.29C123.771 43.002 123.675 42.778 123.484 42.618C123.292 42.458 123.001 42.35 122.61 42.294L121.425 42.306L121.413 43.134L121.437 44.322C121.684 44.346 121.927 44.358 122.167 44.358Z" fill="white"/>
<path d="M129.87 38.958C130.74 38.958 131.406 39.214 131.869 39.726C132.34 40.238 132.575 40.962 132.575 41.898C132.575 42.914 132.324 43.702 131.821 44.262C131.326 44.814 130.616 45.09 129.69 45.09C128.828 45.09 128.162 44.83 127.691 44.31C127.22 43.782 126.984 43.034 126.984 42.066C126.984 41.074 127.236 40.31 127.739 39.774C128.241 39.23 128.952 38.958 129.87 38.958ZM129.786 39.714C129.155 39.714 128.684 39.894 128.373 40.254C128.07 40.614 127.918 41.182 127.918 41.958C127.918 42.79 128.07 43.394 128.373 43.77C128.676 44.146 129.139 44.334 129.762 44.334C130.4 44.334 130.875 44.15 131.187 43.782C131.498 43.414 131.653 42.838 131.653 42.054C131.653 41.246 131.498 40.654 131.187 40.278C130.883 39.902 130.416 39.714 129.786 39.714Z" fill="white"/>
<path d="M23.2139 2.49251C23.6951 2.32372 24.1931 2.32372 24.6744 2.49251C24.785 2.53131 24.8947 2.57462 25.0325 2.62896L25.0788 2.64722C25.2285 2.70624 25.4101 2.77719 25.6033 2.84054L38.5818 7.09591C38.8626 7.18797 39.0294 7.25998 39.1465 7.33758C39.9917 7.89776 40.6565 9.00463 40.8393 10.3384L42.1856 10.7551C42.4934 10.8504 42.9354 10.9987 43.3971 11.25C43.4453 8.92007 42.4397 6.62785 40.5906 5.4023C40.1773 5.12839 39.7382 4.97007 39.4067 4.86135L26.4282 0.605982C26.3152 0.568942 26.1969 0.523458 26.0473 0.464497L26.0005 0.445992C25.8694 0.394206 25.7112 0.331734 25.5499 0.275148C24.5039 -0.0917156 23.3843 -0.0917162 22.3383 0.275148C22.177 0.331719 22.0189 0.394174 21.8878 0.445954L21.8409 0.464497C21.6913 0.523458 21.573 0.568942 21.46 0.605982L8.48156 4.86135C8.14997 4.97007 7.71092 5.12839 7.29765 5.4023C5.44857 6.62785 4.4429 8.92007 4.49116 11.25C4.95278 10.9987 5.39478 10.8504 5.70266 10.7551L7.04897 10.3384C7.23176 9.00463 7.89652 7.89776 8.74171 7.33758C8.85878 7.25998 9.02563 7.18797 9.3064 7.09591L22.2849 2.84054C22.4781 2.77719 22.6597 2.70624 22.8094 2.64722L22.8557 2.62896C22.9935 2.57461 23.1032 2.53131 23.2139 2.49251Z" fill="#EB5757"/>
<path fill-rule="evenodd" clip-rule="evenodd" d="M47.8212 19.8241L45.3749 40.0835C45.1263 42.1426 44.1917 44.0961 42.6587 45.4887L28.7963 58.0824C25.9819 60.6392 21.9063 60.6392 19.092 58.0824L5.22954 45.4887C3.69658 44.0961 2.76198 42.1426 2.51334 40.0835L0.0670271 19.8241C-0.338098 16.469 1.10777 12.9853 4.01115 11.261C4.54349 10.9449 5.0694 10.7687 5.42204 10.6605L20.8499 5.92712C20.9803 5.88712 21.0493 5.86062 21.1571 5.81916C21.2539 5.78196 21.382 5.73273 21.6138 5.6509C23.1286 5.11637 24.7596 5.11637 26.2744 5.6509C26.5063 5.73273 26.6344 5.78196 26.7312 5.81916C26.839 5.86062 26.908 5.88712 27.0383 5.92712L42.4662 10.6605C42.8189 10.7687 43.3448 10.9449 43.8771 11.261C46.7805 12.9853 48.2264 16.469 47.8212 19.8241ZM42.5507 13.4735C42.2872 13.317 41.9969 13.2126 41.7037 13.1227L26.2758 8.38927C26.0888 8.3319 25.9056 8.26315 25.7224 8.1944C25.6183 8.15532 25.5142 8.11625 25.4094 8.07927C24.4542 7.74221 23.434 7.74221 22.4789 8.07927C22.3741 8.11625 22.27 8.15532 22.1658 8.19439C21.9827 8.26315 21.7995 8.3319 21.6125 8.38927L6.1846 13.1227C5.89135 13.2126 5.60111 13.317 5.33758 13.4735C3.43678 14.6024 2.33585 17.0212 2.63717 19.5167L5.08349 39.776C5.26546 41.2831 5.94353 42.649 6.9747 43.5858L20.8371 56.1795C22.663 57.8382 25.2253 57.8382 27.0511 56.1795L40.9136 43.5858C41.9447 42.649 42.6228 41.2831 42.8048 39.776L45.2511 19.5167C45.5524 17.0212 44.4515 14.6024 42.5507 13.4735Z" fill="white"/>
<path d="M12.6687 23.3733C13.9851 23.3733 14.9962 23.7158 15.7019 24.4007C16.4212 25.0719 16.7808 26.0445 16.7808 27.3185C16.7808 28.7979 16.3262 29.9692 15.4169 30.8322C14.5212 31.6952 13.2862 32.1267 11.7119 32.1267H10.2665V32.4349L10.3683 36.5856H8.23077L8.37327 32.6199L8.23077 23.3938L12.6687 23.3733ZM12.3226 30.4829C13.069 30.3322 13.6322 30.0103 14.0122 29.5171C14.4058 29.0103 14.6026 28.339 14.6026 27.5034C14.6026 26.6815 14.3922 26.0719 13.9715 25.6747C13.5644 25.2774 12.9401 25.0651 12.0986 25.0377L10.3683 25.0993L10.2869 30.4418L12.3226 30.4829Z" fill="white"/>
<path d="M24.3914 23.25C25.7214 23.25 26.8953 23.5514 27.9132 24.1541L27.5264 26.024L27.3228 26.0856C26.4135 25.3733 25.4093 25.0171 24.31 25.0171C23.1157 25.0171 22.1996 25.4281 21.5617 26.25C20.9375 27.0582 20.6253 28.2705 20.6253 29.887C20.6253 31.5445 20.9442 32.8048 21.5821 33.6678C22.22 34.5308 23.1292 34.9623 24.31 34.9623C24.88 34.9623 25.4432 34.8664 25.9996 34.6747C26.5696 34.4692 27.0921 34.1884 27.5671 33.8322L27.7707 33.9555L27.6078 35.887C26.4407 36.4623 25.2871 36.75 24.1471 36.75C22.315 36.75 20.9035 36.1747 19.9128 35.024C18.9221 33.8733 18.4267 32.2363 18.4267 30.113C18.4267 27.9212 18.9424 26.2295 19.9739 25.0377C21.0189 23.8459 22.4914 23.25 24.3914 23.25Z" fill="white"/>
<path d="M40.4057 36.5856H38.2478L37.9425 35.1062L37.3725 33.2774L34.6039 33.2158L32.0999 33.2774L31.4892 35.0034L31.1635 36.5856H29.0667L33.7285 23.3938H36.1918L40.4057 36.5856ZM36.8432 31.5514L34.9703 25.4692H34.8278L32.6903 31.5514L34.7464 31.5925L36.8432 31.5514Z" fill="white"/>
</svg>
