<svg width="40" height="40" viewBox="0 0 40 40" fill="none" xmlns="http://www.w3.org/2000/svg">
<path d="M20 0C8.95441 0 0 8.95441 0 20C0 31.0456 8.95441 40 20 40C31.0456 40 40 31.0456 40 20C40 8.95441 31.0456 0 20 0ZM31.2504 9.29551L26.7724 30.3257C26.6884 30.7386 26.218 30.9409 25.8606 30.7171L18.9743 26.1498L15.352 29.5206C15.0296 29.7964 14.5303 29.6622 14.39 29.2614L12.0316 21.8231L5.69841 19.2257C5.21252 19.0043 5.21942 18.2305 5.71747 18.037L30.4401 8.61251C30.8854 8.43973 31.3453 8.82747 31.2504 9.29551Z" fill="white"/>
<path d="M15.1509 27.0557L15.5532 23.2319L26.7221 12.3145L13.239 21.1691L15.1509 27.0557Z" fill="white"/>
</svg>
