<svg width="14" height="14" viewBox="0 0 14 14" fill="none" xmlns="http://www.w3.org/2000/svg">
<path d="M6.99998 0.583252C7.22201 0.583252 7.42479 0.709294 7.52306 0.908388L9.18997 4.28536L12.9177 4.83022C13.1373 4.86233 13.3197 5.01633 13.3882 5.2275C13.4567 5.43867 13.3994 5.6704 13.2403 5.82529L10.5435 8.45205L11.1799 12.163C11.2175 12.3818 11.1275 12.603 10.9478 12.7335C10.7682 12.864 10.53 12.8812 10.3335 12.7779L6.99998 11.0248L3.66649 12.7779C3.46996 12.8812 3.23179 12.864 3.05214 12.7335C2.87248 12.603 2.78251 12.3818 2.82004 12.163L3.45651 8.45205L0.759637 5.82529C0.60061 5.6704 0.543284 5.43867 0.611755 5.2275C0.680225 5.01633 0.862622 4.86233 1.08228 4.83022L4.81 4.28536L6.4769 0.908388C6.57518 0.709294 6.77795 0.583252 6.99998 0.583252Z" fill="#E0E0E0"/>
</svg>
